# Alias OBJ Model File
# Exported from SketchUp, (c) 2000-2012 Trimble Navigation Limited
# File units = millimeters

mtllib Holder.mtl

g Mesh1 Group1 Model

usemtl FrontColor
v -3 0 3
vt 0 0
vn 0 0 1
v 108 0 3
vt 4.37008 0
v 108 6 3
vt 4.37008 0.23622
v -3 6 3
vt 0 0.23622
f 1/1/1 2/2/1 3/3/1 4/4/1 

vn 0 -1 -0
v 0 0 -108
vt -0.11811 4.37008
vt -4.37008 0
f 1/1/2 5/5/2 2/6/2

v 0 0 -180
vt -0.11811 7.20472
f 5/5/2 1/1/2 6/7/2

v -3 0 -183
vt 0 7.32283
f 7/8/2 6/7/2 1/1/2

v 108 0 -183
vt -4.37008 7.32283
f 6/7/2 7/8/2 8/9/2

vn 0 0 -1
v -3 15 -183
vt 0 0.590551
v 108 15 -183
vt -4.37008 0.590551
f 8/6/3 7/1/3 9/10/3 10/11/3 

vt -7.32283 0.590551
vn -1 0 -0
vt -7.32283 0
v -3 6 -105
vt -4.25197 0.23622
v -3 15 -105
vt -4.25197 0.590551
v -3 101 -55
vt -2.28346 3.97638
v -3 134.892 -113.295
vt -4.57855 5.31073
v -3 48.8925 -163.295
vt -6.54705 1.9249
v -3 15 -163.295
vt -6.54705 0.590551
f 9/12/4 7/13/4 1/1/4 4/4/4 11/14/4 12/15/4 13/16/4 14/17/4 15/18/4 16/19/4 

vt 0 4.25197
vn 0 1 -0
v 108 6 -105
vt 4.37008 4.25197
v 105 6 -105
vt 4.25197 4.25197
v 105 6 -0
vt 4.25197 0.11811
v 0 6 -0
vt 0.11811 0.11811
v 0 6 -105
vt 0.11811 4.25197
f 11/20/5 4/1/5 3/2/5 17/21/5 18/22/5 19/23/5 20/24/5 21/25/5 

vt 7.32283 0
vn 1 0 -0
vt 7.32283 0.590551
v 108 15 -163.295
vt 6.54705 0.590551
v 108 48.8925 -163.295
vt 6.54705 1.9249
v 108 134.892 -113.295
vt 4.57855 5.31073
v 108 101 -55
vt 2.28346 3.97638
v 108 15 -105
vt 4.25197 0.590551
vt 4.25197 0.23622
f 8/26/6 10/27/6 22/28/6 23/29/6 24/30/6 25/31/6 26/32/6 17/33/6 3/4/6 2/1/6 

vt 0 6.54705
v 0 15 -163.295
vt 0.11811 6.54705
v 0 15 -180
vt 0.11811 7.20472
v 105 15 -180
vt 4.25197 7.20472
v 105 15 -163.295
vt 4.25197 6.54705
vt 4.37008 6.54705
vt 4.37008 7.32283
f 9/8/5 16/34/5 27/35/5 28/36/5 29/37/5 30/38/5 22/39/5 10/40/5 

v 0 48.8925 -163.295
vt -0.11811 1.9249
vt -0.11811 0.590551
vt 0 1.9249
f 31/41/3 27/42/3 16/10/3 15/43/3 

v 0 16.7442 -108
vt 4.37008 0.65922
v 0 3 -108
vt 4.37008 0.11811
v 0 3 -180
vt 7.20472 0.11811
vt 7.20472 0.590551
f 32/44/6 33/45/6 34/46/6 28/47/6 27/28/6 31/29/6 

v 105 16.7442 -108
vt -4.25197 0.65922
v 105 3 -108
vt -4.25197 0.11811
vt -0.11811 0.11811
vt -0.11811 0.65922
f 35/48/3 36/49/3 33/50/3 32/51/3 

vt -7.20472 0.590551
v 105 3 -180
vt -7.20472 0.11811
vt -4.37008 0.11811
vt -4.37008 0.65922
v 105 48.8925 -163.295
f 29/52/4 37/53/4 36/54/4 35/55/4 38/18/4 30/19/4 

vt 0.11811 0.590551
f 28/56/1 34/24/1 37/23/1 29/32/1 

vt 4.25197 4.37008
vt 0.11811 4.37008
f 36/57/5 37/37/5 34/36/5 33/58/5 

vt -0.11811 4.1093
vn -1.1233e-017 -0.864507 -0.50262
vt -0.11811 6.62747
vt -4.25197 6.62747
vt -4.25197 4.1093
f 32/59/7 31/60/7 38/61/7 35/62/7 

vt 7.35578e-017 2.28989
vn 1.3889e-017 0.50262 -0.864507
vt -4.37008 2.28989
vt -4.37008 -1.62659
vt -4.25197 -1.62659
vt -0.11811 -1.62659
vt 1.05183e-016 -1.62659
f 14/63/8 24/64/8 23/65/8 38/66/8 31/67/8 15/68/8 

vt 9.15625e-017 6.62747
vn 1.00515e-017 0.864507 0.50262
v 1.5 133.589 -111.053
vt 0.177165 6.52536
vt 4.37008 6.62747
f 14/69/9 39/70/9 24/71/9

v 0 132.835 -109.756
vt 0.11811 6.4663
f 39/70/9 14/69/9 40/72/9

v 0 102.304 -57.2421
vt 0.11811 4.07479
f 40/72/9 14/69/9 41/73/9

vt 4.56651e-017 3.97268
f 13/74/9 41/73/9 14/69/9

vt 4.37008 3.97268
f 41/73/9 13/74/9 25/75/9

vt 4.37008 2.28989
vn -1.16878e-017 -0.50262 0.864507
vt -3.08715e-017 2.28989
vt -5.74848e-017 -1.62659
vt 4.37008 -1.62659
f 25/76/10 13/77/10 12/78/10 26/79/10 

vt 0.11811 0.23622
v 0 3 -105
v 105 3 -105
vt 4.37008 0.590551
f 21/80/1 42/24/1 43/23/1 18/33/1 17/3/1 26/81/1 12/10/1 11/4/1 

v 0 3 -0
f 20/80/6 44/24/6 42/23/6 21/33/6 

v 105 3 -0
vt -0.11811 0.23622
f 19/14/3 45/49/3 44/50/3 20/82/3 

f 18/14/4 43/49/4 45/50/4 19/82/4 

f 42/25/5 44/24/5 45/23/5 43/22/5 

v 51 102.304 -57.2421
vt 2.12598 4.07479
f 41/73/9 25/75/9 46/83/9

v 55.5 102.304 -57.2421
vt 2.30315 4.07479
f 46/83/9 25/75/9 47/84/9

v 105 102.304 -57.2421
vt 4.25197 4.07479
f 47/84/9 25/75/9 48/85/9

v 105 133.589 -111.053
vt 4.25197 6.52536
f 48/85/9 25/75/9 49/86/9

f 24/71/9 49/86/9 25/75/9

v 55.5 133.589 -111.053
vt 2.30315 6.52536
f 24/71/9 50/87/9 49/86/9

v 52.5 133.589 -111.053
vt 2.18504 6.52536
f 24/71/9 51/88/9 50/87/9

f 24/71/9 39/70/9 51/88/9

vt 2.18504 2.28989
vn -9.99935e-015 -0.50262 0.864507
vt 0.177165 2.28989
v 1.5 50.1824 -159.545
vt 0.177165 -1.50848
v 52.5 50.1824 -159.545
vt 2.18504 -1.50848
f 51/89/11 39/90/11 52/91/11 53/92/11 

vt 3.52988 4.07838
vn 0.765863 0.323187 -0.555882
v 52.5 103.057 -58.5389
vt 0.677245 2.80819
v 52.5 19.651 -107.031
vt 2.2223 -0.661742
vt 5.07493 0.608448
f 39/93/12 54/94/12 55/95/12 52/96/12 

vt 2.18504 4.13384
f 39/70/9 46/83/9 54/97/9

f 46/83/9 39/70/9 40/72/9

vt -0.670617 2.80524
vn -0.765863 -0.323187 0.555882
vt -3.52325 4.07543
v 3.83656e-012 49.4285 -158.248
vt -5.06831 0.605497
v 51 18.8971 -105.734
vt -2.21567 -0.664693
f 46/98/13 40/99/13 56/100/13 57/101/13 

v 0 18.8971 -105.734
vt 4.28088 0.743979
vn 1 3.91008e-015 1.96472e-014
vt 6.34836 1.946
vt 4.43922 5.22972
vt 2.37174 4.0277
f 58/102/14 56/103/14 40/104/14 41/105/14 

v 3 18.8971 -105.734
vt 0.23622 4.07479
vn -1.88672e-015 0.864507 0.50262
f 59/106/15 57/83/15 56/72/15 58/73/15 

vt -0.11811 2.28989
vn -1.17943e-014 0.50262 -0.864507
vt -2.12598 2.28989
vt -2.12598 -1.50848
vt -0.23622 -1.50848
vt -0.11811 -1.50848
f 41/107/16 46/108/16 57/109/16 59/110/16 58/111/16 

f 46/83/9 47/84/9 54/97/9

f 54/97/9 47/84/9 51/88/9

f 50/87/9 51/88/9 47/84/9

vt 4.49027 5.25941
vn 1 2.02149e-016 1.17528e-016
v 55.5 18.8971 -105.734
v 55.5 50.1824 -159.545
vt 6.39941 1.97569
f 50/112/17 47/105/17 60/102/17 61/113/17 

v 105 18.8971 -105.734
vt -4.25197 -1.50848
vn -2.32735e-016 0.50262 -0.864507
vt -2.30315 -1.50848
vt -2.30315 2.28989
vt -4.25197 2.28989
f 62/114/18 60/115/18 47/116/18 48/117/18 

v 105 50.1824 -159.545
vn 5.25418e-016 0.864507 0.50262
f 63/86/19 61/87/19 60/84/19 62/85/19 

vt 4.25197 2.28989
vn 1.18719e-016 -0.50262 0.864507
vt 2.30315 2.28989
vt 2.30315 -1.50848
vt 4.25197 -1.50848
f 49/118/20 50/119/20 61/120/20 63/121/20 

vt -4.28088 0.743979
vt -2.37174 4.0277
vt -4.49027 5.25941
vt -6.39941 1.97569
f 62/122/4 48/123/4 49/124/4 63/125/4 

vn -1 -1.91478e-014 6.18389e-015
vt -4.33193 0.773662
vt -2.42279 4.05738
f 53/125/21 55/126/21 54/127/21 51/124/21 

vn 1.13619e-015 0.864507 0.50262
f 53/88/22 52/70/22 55/97/22

vt -4.25197 1.9249
vt -4.37008 1.9249
f 30/15/3 38/128/3 23/129/3 22/11/3 

v 105 0 -108
vt -4.25197 4.37008
f 2/6/2 64/130/2 8/9/2

f 2/6/2 5/5/2 64/130/2

v 105 0 -180
f 5/58/5 64/57/5 65/37/5 6/36/5 

vt -4.25197 7.20472
f 65/131/2 8/9/2 64/130/2

f 6/7/2 8/9/2 65/131/2

