# Alias OBJ Model File
# Exported from SketchUp, (c) 2000-2012 Trimble Navigation Limited
# File units = millimeters

mtllib HydroHolder.mtl

g Mesh1 Group1 Model

usemtl FrontColor
v 26 0 -0
vt 1.02362 0
vn 0 1 -0
v 26 0 -26
vt 1.02362 1.02362
v 0 0 -26
vt 0 1.02362
v 0 0 -0
vt 0 0
f 1/1/1 2/2/1 3/3/1 4/4/1 

vn 1 0 -0
v 26 18 -26
vt 1.02362 0.708661
v 26 18 -0
vt 0 0.708661
f 1/4/2 2/1/2 5/5/2 6/6/2 

vt -1.02362 0
vn 0 0 -1
v 0 18 -26
vt -1.02362 0.708661
f 2/7/3 3/4/3 7/6/3 5/8/3 

vn -1 0 -0
v 0 18 -0
f 4/4/4 8/6/4 7/8/4 3/7/4 

vn 0 0 1
f 4/4/5 1/1/5 6/5/5 8/6/5 

v 3 18 -3
vt 0.11811 0.11811
f 9/9/1 8/4/1 6/1/1

f 8/4/1 9/9/1 7/3/1

v 2 18 -11.5
vt 0.0787402 0.452756
f 7/3/1 9/9/1 10/10/1

v 3 18 -11.5
vt 0.11811 0.452756
f 11/11/1 10/10/1 9/9/1

vt -0.0787402 0.708661
vt -0.11811 0.708661
v 3 9 -11.5
vt -0.11811 0.354331
v 2 9 -11.5
vt -0.0787402 0.354331
f 10/12/3 11/13/3 12/14/3 13/15/3 

vt 0.11811 0.708661
v 3 3 -3
v 3 3 -23
vt 0.905512 0.11811
v 3 18 -23
vt 0.905512 0.708661
v 3 18 -14.5
vt 0.570866 0.708661
v 3 9 -14.5
vt 0.570866 0.354331
vt 0.452756 0.354331
vt 0.452756 0.708661
f 9/16/2 14/9/2 15/17/2 16/18/2 17/19/2 18/20/2 12/21/2 11/22/2 

v 23 18 -3
vt -0.905512 0.708661
v 23 3 -3
vt -0.905512 0.11811
vt -0.11811 0.11811
v 11.5 18 -3
vt -0.452756 0.708661
v 11.5 9 -3
vt -0.452756 0.354331
v 14.5 9 -3
vt -0.570866 0.354331
v 14.5 18 -3
vt -0.570866 0.708661
f 19/23/3 20/24/3 14/25/3 9/13/3 21/26/3 22/27/3 23/28/3 24/29/3 

v 23 18 -23
v 23 3 -23
v 23 18 -11.5
v 23 9 -11.5
v 23 9 -14.5
v 23 18 -14.5
f 25/23/4 26/24/4 20/25/4 19/13/4 27/26/4 28/27/4 29/28/4 30/29/4 

v 14.5 18 -23
v 14.5 9 -23
v 11.5 9 -23
v 11.5 18 -23
f 16/16/5 15/9/5 26/17/5 25/18/5 31/19/5 32/20/5 33/21/5 34/22/5 

vt 0.905512 0.905512
vt 0.11811 0.905512
f 14/9/1 20/17/1 26/30/1 15/31/1 

v 14.5 18 -24
vt 0.570866 0.944882
vt 0.570866 0.905512
f 25/30/1 35/32/1 31/33/1

f 5/2/1 35/32/1 25/30/1

v 11.5 18 -24
vt 0.452756 0.944882
f 5/2/1 36/34/1 35/32/1

f 5/2/1 16/31/1 36/34/1

f 7/3/1 16/31/1 5/2/1

v 2 18 -14.5
vt 0.0787402 0.570866
f 16/31/1 7/3/1 37/35/1

f 37/35/1 7/3/1 10/10/1

v 2 9 -14.5
f 37/19/2 10/22/2 13/21/2 38/20/2 

vt 0.11811 0.570866
f 12/11/1 18/36/1 38/35/1 13/10/1 

vt 0.0787402 0.708661
vt 0.0787402 0.354331
vt 0.11811 0.354331
f 17/16/5 37/37/5 38/38/5 18/39/5 

f 16/31/1 37/35/1 17/36/1

vt 0.452756 0.905512
f 36/34/1 16/31/1 34/40/1

vt 0.944882 0.708661
vt 0.905512 0.354331
v 11.5 9 -24
vt 0.944882 0.354331
f 36/41/2 34/18/2 33/42/2 39/43/2 

v 14.5 9 -24
f 33/40/1 32/33/1 40/32/1 39/34/1 

vt -0.944882 0.708661
vt -0.944882 0.354331
vt -0.905512 0.354331
f 31/23/4 35/44/4 40/45/4 32/46/4 

f 35/19/5 36/22/5 39/21/5 40/20/5 

v 24 18 -14.5
vt 0.944882 0.570866
f 5/2/1 25/30/1 41/47/1

vt 0.905512 0.570866
f 41/47/1 25/30/1 30/48/1

v 24 9 -14.5
f 41/41/5 30/18/5 29/42/5 42/43/5 

vt 0.905512 0.452756
v 24 9 -11.5
vt 0.944882 0.452756
f 29/48/1 28/49/1 43/50/1 42/47/1 

v 24 18 -11.5
f 27/23/3 44/44/3 43/45/3 28/46/3 

f 27/49/1 6/1/1 44/50/1

f 19/17/1 6/1/1 27/49/1

vt 0.570866 0.11811
f 24/51/1 6/1/1 19/17/1

v 14.5 18 -2
vt 0.570866 0.0787402
f 45/52/1 6/1/1 24/51/1

v 11.5 18 -2
vt 0.452756 0.0787402
f 46/53/1 6/1/1 45/52/1

f 9/9/1 6/1/1 46/53/1

vt 0.452756 0.11811
f 21/54/1 9/9/1 46/53/1

v 11.5 9 -2
f 21/16/2 46/37/2 47/38/2 22/39/2 

v 14.5 9 -2
f 46/26/3 45/29/3 48/28/3 47/27/3 

f 45/12/4 24/13/4 23/14/4 48/15/4 

f 23/51/1 22/54/1 47/53/1 48/52/1 

f 44/50/1 6/1/1 41/47/1

f 5/2/1 41/47/1 6/1/1

f 44/26/4 41/29/4 42/28/4 43/27/4 

