# Alias OBJ Model File
# Exported from SketchUp, (c) 2000-2012 Trimble Navigation Limited
# File units = millimeters

mtllib PDMS Casting3.mtl

g Mesh1 Group1 Model

usemtl FrontColor
v 68.2521 0 -48.5421
vt 1.02306e-017 -2.50325e-018
vn 1.29928e-016 3.17913e-017 -1
v 68.2521 24 -48.5421
vt 1.02306e-017 0.944882
v 70.2521 24 -48.5421
vt -0.0787402 0.944882
v 88.2521 24 -48.5421
vt -0.787402 0.944882
v 88.2521 13 -48.5421
vt -0.787402 0.511811
v 88.3202 12.4824 -48.5421
vt -0.790085 0.491432
v 88.504 12.0386 -48.5421
vt -0.797322 0.47396
v 88.52 12 -48.5421
vt -0.797951 0.472441
v 88.8379 11.5858 -48.5421
vt -0.810464 0.456133
v 89.2521 11.2679 -48.5421
vt -0.826772 0.44362
v 89.7344 11.0681 -48.5421
vt -0.845762 0.435754
v 90.2521 11 -48.5421
vt -0.866142 0.433071
v 90.7697 11.0681 -48.5421
vt -0.886521 0.435754
v 91.2521 11.2679 -48.5421
vt -0.905512 0.44362
v 91.6663 11.5858 -48.5421
vt -0.921819 0.456133
v 91.9841 12 -48.5421
vt -0.934333 0.472441
v 92.0001 12.0386 -48.5421
vt -0.934962 0.47396
v 92.1839 12.4824 -48.5421
vt -0.942199 0.491432
v 92.2521 13 -48.5421
vt -0.944882 0.511811
v 92.2521 24 -48.5421
vt -0.944882 0.944882
v 110.252 24 -48.5421
vt -1.65354 0.944882
v 112.252 24 -48.5421
vt -1.73228 0.944882
v 112.252 0 -48.5421
vt -1.73228 -2.50325e-018
f 1/1/1 2/2/1 3/3/1 4/4/1 5/5/1 6/6/1 7/7/1 8/8/1 9/9/1 10/10/1 11/11/1 12/12/1 13/13/1 14/14/1 15/15/1 16/16/1 17/17/1 18/18/1 19/19/1 20/20/1 21/21/1 22/22/1 23/23/1 

v 68.2521 24 -46.5421
vt 0 0.944882
vn -1 2.32549e-018 -2.79059e-017
vt -0.0787402 -5.10984e-036
v 68.2521 0 -46.5421
vt 0 0
f 24/24/2 2/3/2 1/25/2 25/26/2 

vt 0.787402 0.0787402
vn 0 1 -0
vt 0.0787402 0.0787402
vt 0 0.0787402
v 87.2521 24 -46.5421
vt 0.748031 0
v 87.2521 24 -47.5421
vt 0.748031 0.0393701
v 88.2521 24 -47.5421
vt 0.787402 0.0393701
f 4/27/3 3/28/3 2/29/3 24/26/3 26/30/3 27/31/3 28/32/3 

v 112.252 24 -46.5421
vt 1.73228 0.944882
vn 0 0 1
v 93.2521 24 -46.5421
vt 0.984252 0.944882
v 93.2521 13 -46.5421
vt 0.984252 0.511811
v 93.1498 12.2235 -46.5421
vt 0.980227 0.481242
v 92.8501 11.5 -46.5421
vt 0.968428 0.452756
v 92.3734 10.8787 -46.5421
vt 0.949658 0.428294
v 91.7521 10.4019 -46.5421
vt 0.925197 0.409525
v 91.0285 10.1022 -46.5421
vt 0.896711 0.397725
v 90.2521 10 -46.5421
vt 0.866142 0.393701
v 89.4756 10.1022 -46.5421
vt 0.835573 0.397725
v 88.7521 10.4019 -46.5421
vt 0.807087 0.409525
v 88.1307 10.8787 -46.5421
vt 0.782625 0.428294
v 87.654 11.5 -46.5421
vt 0.763855 0.452756
v 87.3543 12.2235 -46.5421
vt 0.752056 0.481242
v 87.2521 13 -46.5421
vt 0.748031 0.511811
vt 0.748031 0.944882
v 112.252 0 -46.5421
vt 1.73228 0
f 29/33/4 30/34/4 31/35/4 32/36/4 33/37/4 34/38/4 35/39/4 36/40/4 37/41/4 38/42/4 39/43/4 40/44/4 41/45/4 42/46/4 43/47/4 26/48/4 24/24/4 25/26/4 44/49/4 

vt 1.73228 0.0787402
vt 1.65354 0.0787402
vt 0.944882 0.0787402
v 92.2521 24 -47.5421
vt 0.944882 0.0393701
v 93.2521 24 -47.5421
vt 0.984252 0.0393701
vt 0.984252 0
f 29/49/3 22/50/3 21/51/3 20/52/3 45/53/3 46/54/3 30/55/3 

vt 0.0787402 0
vn 1 0 -0
vt 0.0787402 0.944882
f 23/56/5 22/57/5 29/24/5 44/26/5 

vn 0 -1 -0
vt -1.73228 0.0787402
vt -1.73228 0
f 25/26/6 1/29/6 23/58/6 44/59/6 

vt -0.0393701 0.944882
vn -1 0 -0
vt -0.0787402 0.511811
v 92.2521 13 -47.5421
vt -0.0393701 0.511811
f 45/60/7 20/3/7 19/61/7 47/62/7 

vt -0.0787402 0.630764
vn -0.991445 0.130526 -0
vt -0.0787402 0.610209
vn -0.965926 0.258819 -0
v 92.1839 12.4824 -47.5421
vt -0.0393701 0.610209
vt -0.0393701 0.630764
f 19/63/8 18/64/9 48/65/9 47/66/8 

vt -0.0787402 0.814587
vt -0.0787402 0.795676
vn -0.92388 0.382683 -0
v 92.0001 12.0386 -47.5421
vt -0.0393701 0.795676
vt -0.0393701 0.814587
f 18/67/9 17/68/10 49/69/10 48/70/9 

vt -0.0787402 0.794032
vn -0.866025 0.5 -0
v 91.9841 12 -47.5421
vt -0.0393701 0.794032
f 17/68/10 16/71/11 50/72/11 49/69/10 

vt -0.0787402 0.943598
vt -0.0787402 0.923043
vn -0.707107 0.707107 -0
v 91.6663 11.5858 -47.5421
vt -0.0393701 0.923043
vt -0.0393701 0.943598
f 16/73/11 15/74/12 51/75/12 50/76/11 

vt -0.0787402 1.009
vt -0.0787402 0.98845
vn -0.5 0.866025 -0
v 91.2521 11.2679 -47.5421
vt -0.0393701 0.98845
vt -0.0393701 1.009
f 15/77/12 14/78/13 52/79/13 51/80/12 

vt -0.0787402 1.00635
vt -0.0787402 0.985795
vn -0.258819 0.965926 -0
v 90.7697 11.0681 -47.5421
vt -0.0393701 0.985795
vt -0.0393701 1.00635
f 14/81/13 13/82/14 53/83/14 52/84/13 

vt -0.0787402 0.935814
vt -0.0787402 0.915259
vn -3.63936e-016 1 -0
v 90.2521 11 -47.5421
vt -0.0393701 0.915259
vt -0.0393701 0.935814
f 13/85/14 12/86/15 54/87/15 53/88/14 

vt 0.0787402 -0.802205
vt 0.0787402 -0.781649
vn 0.258819 0.965926 -0
v 89.7344 11.0681 -47.5421
vt 0.0393701 -0.781649
vt 0.0393701 -0.802205
f 12/89/15 11/90/16 55/91/16 54/92/15 

vt 0.0787402 -0.614627
vt 0.0787402 -0.594071
vn 0.5 0.866025 -0
v 89.2521 11.2679 -47.5421
vt 0.0393701 -0.594071
vt 0.0393701 -0.614627
f 11/93/16 10/94/17 56/95/17 55/96/16 

vt 0.0787402 -0.385863
vt 0.0787402 -0.365308
vn 0.707107 0.707107 -0
v 88.8379 11.5858 -47.5421
vt 0.0393701 -0.365308
vt 0.0393701 -0.385863
f 10/97/17 9/98/18 57/99/18 56/100/17 

vt 0.0787402 -0.131504
vt 0.0787402 -0.110949
vn 0.866025 0.5 -0
v 88.52 12 -47.5421
vt 0.0393701 -0.110949
vt 0.0393701 -0.131504
f 9/101/18 8/102/19 58/103/19 57/104/18 

vt 0.0787402 0.131116
vt 0.0787402 0.13276
vn 0.92388 0.382683 -0
v 88.504 12.0386 -47.5421
vt 0.0393701 0.13276
vt 0.0393701 0.131116
f 8/105/19 7/106/20 59/107/20 58/108/19 

vt 0.0787402 0.151671
vn 0.965926 0.258819 -0
v 88.3202 12.4824 -47.5421
vt 0.0393701 0.151671
f 7/106/20 6/109/21 60/110/21 59/107/20 

vt 0.0787402 0.384101
vt 0.0787402 0.404656
vn 0.991445 0.130526 -0
v 88.2521 13 -47.5421
vt 0.0393701 0.404656
vt 0.0393701 0.384101
f 6/111/21 5/112/22 61/113/22 60/114/21 

vt 0.0787402 0.511811
vn 1 2.6606e-016 -8.93032e-017
vt 0.0393701 0.944882
vt 0.0393701 0.511811
f 5/115/23 4/57/23 28/116/23 61/117/23 

vt 0.944882 0.944882
vt 0.944882 0.511811
vt 0.942199 0.491432
vt 0.934962 0.47396
vt 0.934333 0.472441
vt 0.921819 0.456133
vt 0.905512 0.44362
vt 0.886521 0.435754
vt 0.866142 0.433071
vt 0.845762 0.435754
vt 0.826772 0.44362
vt 0.810464 0.456133
vt 0.797951 0.472441
vt 0.797322 0.47396
vt 0.790085 0.491432
vt 0.787402 0.511811
vt 0.787402 0.944882
v 87.2521 13 -47.5421
v 87.3543 12.2235 -47.5421
v 87.654 11.5 -47.5421
v 88.1307 10.8787 -47.5421
v 88.7521 10.4019 -47.5421
v 89.4756 10.1022 -47.5421
v 90.2521 10 -47.5421
v 91.0285 10.1022 -47.5421
v 91.7521 10.4019 -47.5421
v 92.3734 10.8787 -47.5421
v 92.8501 11.5 -47.5421
v 93.1498 12.2235 -47.5421
v 93.2521 13 -47.5421
f 46/34/4 45/118/4 47/119/4 48/120/4 49/121/4 50/122/4 51/123/4 52/124/4 53/125/4 54/126/4 55/127/4 56/128/4 57/129/4 58/130/4 59/131/4 60/132/4 61/133/4 28/134/4 27/48/4 62/47/4 63/46/4 64/45/4 65/44/4 66/43/4 67/42/4 68/41/4 69/40/4 70/39/4 71/38/4 72/37/4 73/36/4 74/35/4 

vn 1 2.56361e-016 -0
vt 0 0.511811
f 26/24/24 43/135/24 62/117/24 27/116/24 

vt 0 0.409795
vt 0 0.378962
vt 0.0393701 0.378962
vt 0.0393701 0.409795
f 43/136/22 42/137/21 63/138/21 62/139/22 

vt 0 0.15681
vt 0 0.125977
vt 0.0393701 0.125977
vt 0.0393701 0.15681
f 42/140/21 41/141/19 64/142/19 63/143/21 

vt 0 -0.10581
vt 0 -0.136643
vt 0.0393701 -0.136643
vt 0.0393701 -0.10581
f 41/144/19 40/145/18 65/146/18 64/147/19 

vt 0 -0.360169
vt 0 -0.391002
vt 0.0393701 -0.391002
vt 0.0393701 -0.360169
f 40/148/18 39/149/17 66/150/17 65/151/18 

vt 0 -0.588933
vt 0 -0.619765
vt 0.0393701 -0.619765
vt 0.0393701 -0.588933
f 39/152/17 38/153/16 67/154/16 66/155/17 

vt 0 -0.776511
vt 0 -0.807344
vt 0.0393701 -0.807344
vt 0.0393701 -0.776511
f 38/156/16 37/157/3 68/158/3 67/159/16 

vt 0 0.91012
vt 0 0.940953
vt -0.0393701 0.940953
vt -0.0393701 0.91012
f 37/160/3 36/161/14 69/162/14 68/163/3 

vt 0 0.980656
vt 0 1.01149
vt -0.0393701 1.01149
vt -0.0393701 0.980656
f 36/164/14 35/165/13 70/166/13 69/167/14 

vt 0 0.983311
vt 0 1.01414
vt -0.0393701 1.01414
vt -0.0393701 0.983311
f 35/168/13 34/169/12 71/170/12 70/171/13 

vt 0 0.917904
vt 0 0.948737
vt -0.0393701 0.948737
vt -0.0393701 0.917904
f 34/172/12 33/173/11 72/174/11 71/175/12 

vt 0 0.788893
vt 0 0.819726
vt -0.0393701 0.819726
vt -0.0393701 0.788893
f 33/176/11 32/177/9 73/178/9 72/179/11 

vt 0 0.60507
vt 0 0.635903
vt -0.0393701 0.635903
vt -0.0393701 0.60507
f 32/180/9 31/181/8 74/182/8 73/183/9 

f 31/135/7 30/24/7 46/60/7 74/62/7 

