# Alias OBJ Model File
# Exported from SketchUp, (c) 2000-2012 Trimble Navigation Limited
# File units = millimeters

mtllib PDMS Casting4.mtl

g Mesh1 Group1 Model

usemtl FrontColor
v 69.1177 24 -66.0122
vt 0 0.944882
vn 0 0 1
v 69.1177 0 -66.0122
vt 0 0
v 113.118 0 -66.0122
vt 1.73228 0
v 113.118 24 -66.0122
vt 1.73228 0.944882
v 111.118 24 -66.0122
vt 1.65354 0.944882
v 93.1177 24 -66.0122
vt 0.944882 0.944882
v 93.1177 12 -66.0122
vt 0.944882 0.472441
v 93.0495 11.4824 -66.0122
vt 0.942199 0.452061
v 92.8684 11.0451 -66.0122
vt 0.935068 0.434845
v 92.8497 11 -66.0122
vt 0.934333 0.433071
v 92.5319 10.5858 -66.0122
vt 0.921819 0.416763
v 92.1177 10.2679 -66.0122
vt 0.905512 0.40425
v 91.6353 10.0681 -66.0122
vt 0.886521 0.396384
v 91.1177 10 -66.0122
vt 0.866142 0.393701
v 90.6 10.0681 -66.0122
vt 0.845762 0.396384
v 90.1177 10.2679 -66.0122
vt 0.826772 0.40425
v 89.7035 10.5858 -66.0122
vt 0.810464 0.416763
v 89.3856 11 -66.0122
vt 0.797951 0.433071
v 89.367 11.0451 -66.0122
vt 0.797216 0.434845
v 89.1858 11.4824 -66.0122
vt 0.790085 0.452061
v 89.1177 12 -66.0122
vt 0.787402 0.472441
v 89.1177 24 -66.0122
vt 0.787402 0.944882
v 71.1177 24 -66.0122
vt 0.0787402 0.944882
f 1/1/1 2/2/1 3/3/1 4/4/1 5/5/1 6/6/1 7/7/1 8/8/1 9/9/1 10/10/1 11/11/1 12/12/1 13/13/1 14/14/1 15/15/1 16/16/1 17/17/1 18/18/1 19/19/1 20/20/1 21/21/1 22/22/1 23/23/1 

v 69.1177 0 -68.0122
vt -0.0787402 2.87057e-035
vn -1 3.18225e-018 1.14561e-016
v 69.1177 24 -68.0122
vt -0.0787402 0.944882
f 24/24/2 2/2/2 1/1/2 25/25/2 

v 113.118 0 -68.0122
vt -1.73228 0.0787402
vn 0 -1 -0
vt -1.73228 0
vt 0 0.0787402
f 26/26/3 3/27/3 2/2/3 24/28/3 

v 113.118 24 -68.0122
vn 1 0 -0
vt 0.0787402 0
f 27/23/4 4/1/4 3/2/4 26/29/4 

vt 0.944882 0
vn 0 1 -0
vt 1.65354 0
vt 1.73228 0.0787402
v 94.1177 24 -68.0122
vt 0.984252 0.0787402
v 94.1177 24 -67.0122
vt 0.984252 0.0393701
v 93.1177 24 -67.0122
vt 0.944882 0.0393701
f 6/30/5 5/31/5 4/3/5 27/32/5 28/33/5 29/34/5 30/35/5 

v 94.0155 11.2235 -68.0122
vt -0.980227 0.441872
vn -3.94259e-033 -3.46531e-032 -1
v 94.1177 12 -68.0122
vt -0.984252 0.472441
vt -0.984252 0.944882
vt -1.73228 0.944882
vt -1.73228 2.72859e-033
vt -3.1044e-034 2.72859e-033
vt -3.1044e-034 0.944882
v 88.1177 24 -68.0122
vt -0.748031 0.944882
v 88.1177 12 -68.0122
vt -0.748031 0.472441
v 88.2199 11.2235 -68.0122
vt -0.752056 0.441872
v 88.5196 10.5 -68.0122
vt -0.763855 0.413386
v 88.9964 9.87868 -68.0122
vt -0.782625 0.388924
v 89.6177 9.40192 -68.0122
vt -0.807087 0.370154
v 90.3412 9.10222 -68.0122
vt -0.835573 0.358355
v 91.1177 9 -68.0122
vt -0.866142 0.354331
v 91.8941 9.10222 -68.0122
vt -0.896711 0.358355
v 92.6177 9.40192 -68.0122
vt -0.925197 0.370154
v 93.239 9.87868 -68.0122
vt -0.949658 0.388924
v 93.7158 10.5 -68.0122
vt -0.968428 0.413386
f 31/36/6 32/37/6 28/38/6 27/39/6 26/40/6 24/41/6 25/42/6 33/43/6 34/44/6 35/45/6 36/46/6 37/47/6 38/48/6 39/49/6 40/50/6 41/51/6 42/52/6 43/53/6 44/54/6 

vt -0.0787402 0.59687
vn -0.991445 0.130526 -0
vt -0.0787402 0.566037
vn -0.965926 0.258819 -0
v 94.0155 11.2235 -67.0122
vt -0.0393701 0.566037
v 94.1177 12 -67.0122
vt -0.0393701 0.59687
f 32/55/7 31/56/8 45/57/8 46/58/7 

vt -0.0787402 0.783353
vt -0.0787402 0.75252
vn -0.866025 0.5 -0
v 93.7158 10.5 -67.0122
vt -0.0393701 0.75252
vt -0.0393701 0.783353
f 31/59/8 44/60/9 47/61/9 45/62/8 

vt -0.0787402 0.917503
vt -0.0787402 0.88667
vn -0.707107 0.707107 -0
v 93.239 9.87868 -67.0122
vt -0.0393701 0.88667
vt -0.0393701 0.917503
f 44/63/9 43/64/10 48/65/10 47/66/9 

vt -0.0787402 0.990177
vt -0.0787402 0.959344
vn -0.5 0.866025 -0
v 92.6177 9.40192 -67.0122
vt -0.0393701 0.959344
vt -0.0393701 0.990177
f 43/67/10 42/68/11 49/69/11 48/70/10 

vt -0.0787402 0.996422
vt -0.0787402 0.965589
vn -0.258819 0.965926 -0
v 91.8941 9.10222 -67.0122
vt -0.0393701 0.965589
vt -0.0393701 0.996422
f 42/71/11 41/72/12 50/73/12 49/74/11 

vt -0.0787402 0.935814
vt -0.0787402 0.904981
v 91.1177 9 -67.0122
vt -0.0393701 0.904981
vt -0.0393701 0.935814
f 41/75/12 40/76/5 51/77/5 50/78/12 

vt 0.0787402 -0.812482
vt 0.0787402 -0.781649
vn 0.258819 0.965926 -0
v 90.3412 9.10222 -67.0122
vt 0.0393701 -0.781649
vt 0.0393701 -0.812482
f 40/79/5 39/80/13 52/81/13 51/82/5 

vt 0.0787402 -0.634832
vt 0.0787402 -0.603999
vn 0.5 0.866025 -0
v 89.6177 9.40192 -67.0122
vt 0.0393701 -0.603999
vt 0.0393701 -0.634832
f 39/83/13 38/84/14 53/85/14 52/86/13 

vt 0.0787402 -0.414969
vt 0.0787402 -0.384136
vn 0.707107 0.707107 -0
v 88.9964 9.87868 -67.0122
vt 0.0393701 -0.384136
vt 0.0393701 -0.414969
f 38/87/14 37/88/15 54/89/15 53/90/14 

vt 0.0787402 -0.167878
vt 0.0787402 -0.137045
vn 0.866025 0.5 -0
v 88.5196 10.5 -67.0122
vt 0.0393701 -0.137045
vt 0.0393701 -0.167878
f 37/91/15 36/92/16 55/93/16 54/94/15 

vt 0.0787402 0.0896039
vt 0.0787402 0.120437
vn 0.965926 0.258819 -0
v 88.2199 11.2235 -67.0122
vt 0.0393701 0.120437
vt 0.0393701 0.0896039
f 36/95/16 35/96/17 56/97/17 55/98/16 

vt 0.0787402 0.339928
vt 0.0787402 0.370761
vn 0.991445 0.130526 -0
v 88.1177 12 -67.0122
vt 0.0393701 0.370761
vt 0.0393701 0.339928
f 35/99/17 34/100/18 57/101/18 56/102/17 

vt 0.0787402 0.472441
v 88.1177 24 -67.0122
vt 0.0393701 0.944882
vt 0.0393701 0.472441
f 34/103/4 33/23/4 58/104/4 57/105/4 

vt 0.787402 0
v 89.1177 24 -67.0122
vt 0.787402 0.0393701
vt 0.748031 0.0393701
vt 0.748031 0.0787402
f 25/28/5 1/2/5 23/29/5 22/106/5 59/107/5 58/108/5 33/109/5 

vt 0 0.472441
v 89.1177 12 -67.0122
f 21/110/4 60/105/4 59/104/4 22/1/4 

vt 2.26794e-031 0.345067
vn 0.965926 0.258819 2.47056e-031
v 89.1858 11.4824 -67.0122
vt 0.0393701 0.345067
vt 0.0393701 0.365623
vn 0.991445 0.130526 2.84595e-031
vt 2.26024e-031 0.365623
f 20/111/19 61/112/19 60/113/20 21/114/20 

vt 1.77146e-031 0.0966631
vn 0.92388 0.382683 2.05291e-031
v 89.367 11.0451 -67.0122
vt 0.0393701 0.0966631
vt 0.0393701 0.115298
vt 1.75561e-031 0.115298
f 19/115/21 62/116/21 61/117/19 20/118/19 

vt 1.77309e-031 0.0947428
vn 0.866025 0.5 1.60013e-031
v 89.3856 11 -67.0122
vt 0.0393701 0.0947428
f 18/119/22 63/120/22 62/116/21 19/115/21 

vt 1.14413e-031 -0.162739
vn 0.707107 0.707107 6.20648e-032
v 89.7035 10.5858 -67.0122
vt 0.0393701 -0.162739
vt 0.0393701 -0.142183
vt 1.12646e-031 -0.142183
f 17/121/23 64/122/23 63/123/22 18/124/22 

vt 1.50353e-032 -0.40983
vn 0.5 0.866025 -4.01129e-032
v 90.1177 10.2679 -67.0122
vt 0.0393701 -0.40983
vt 0.0393701 -0.389275
vt 1.47387e-032 -0.389275
f 16/125/24 65/126/24 64/127/23 17/128/23 

vt -2.00256e-031 -0.629693
vn 0.258819 0.965926 -1.39557e-031
v 90.6 10.0681 -67.0122
vt 0.0393701 -0.629693
vt 0.0393701 -0.609138
vt -1.95759e-031 -0.609138
f 15/129/25 66/130/25 65/131/24 16/132/24 

vt -1.23502e-030 -0.807344
vn -3.63936e-016 1 -2.29491e-031
v 91.1177 10 -67.0122
vt 0.0393701 -0.807344
vt 0.0393701 -0.786788
vt -1.20596e-030 -0.786788
f 14/133/26 67/134/26 66/135/25 15/136/25 

vt -1.8266e-030 0.930675
vn -0.258819 0.965926 -3.03785e-031
v 91.6353 10.0681 -67.0122
vt -0.0393701 0.930675
vt -0.0393701 0.91012
vt -1.78461e-030 0.91012
f 13/137/27 68/138/27 67/139/26 14/140/26 

vt -7.88975e-031 0.991284
vn -0.5 0.866025 -3.57376e-031
v 92.1177 10.2679 -67.0122
vt -0.0393701 0.991284
vt -0.0393701 0.970728
vt -7.72428e-031 0.970728
f 12/141/28 69/142/28 68/143/27 13/144/27 

vt -5.68155e-031 0.985038
vn -0.707107 0.707107 -3.86613e-031
v 92.5319 10.5858 -67.0122
vt -0.0393701 0.985038
vt -0.0393701 0.964483
vt -5.58104e-031 0.964483
f 11/145/29 70/146/29 69/147/28 12/148/28 

vt -4.6096e-031 0.912364
vn -0.866025 0.5 -3.89503e-031
v 92.8497 11 -67.0122
vt -0.0393701 0.912364
vt -0.0393701 0.891809
vt -4.54787e-031 0.891809
f 10/149/30 71/150/30 70/151/29 11/152/29 

vt -3.85548e-031 0.759579
vn -0.92388 0.382683 -3.80935e-031
v 92.8684 11.0451 -67.0122
vt -0.0393701 0.759579
vt -0.0393701 0.757659
vt -3.85245e-031 0.757659
f 9/153/31 72/154/31 71/155/30 10/156/30 

vt -3.88489e-031 0.778214
vn -0.965926 0.258819 -3.65849e-031
v 93.0495 11.4824 -67.0122
vt -0.0393701 0.778214
f 8/157/32 73/158/32 72/154/31 9/153/31 

vt -3.28324e-031 0.591731
vn -0.991445 0.130526 -3.44504e-031
v 93.1177 12 -67.0122
vt -0.0393701 0.591731
vt -0.0393701 0.571176
vt -3.27392e-031 0.571176
f 7/159/33 74/160/33 73/161/32 8/162/32 

vn -1 0 -0
vt -0.0393701 0.944882
vt -0.0393701 0.472441
f 7/110/34 6/1/34 30/163/34 74/164/34 

vn 0 0 -1
vt -0.787402 0.944882
vt -0.787402 0.472441
vt -0.790085 0.452061
vt -0.797216 0.434845
vt -0.797951 0.433071
vt -0.810464 0.416763
vt -0.826772 0.40425
vt -0.845762 0.396384
vt -0.866142 0.393701
vt -0.886521 0.396384
vt -0.905512 0.40425
vt -0.921819 0.416763
vt -0.934333 0.433071
vt -0.935068 0.434845
vt -0.942199 0.452061
vt -0.944882 0.472441
vt -0.944882 0.944882
f 58/43/35 59/165/35 60/166/35 61/167/35 62/168/35 63/169/35 64/170/35 65/171/35 66/172/35 67/173/35 68/174/35 69/175/35 70/176/35 71/177/35 72/178/35 73/179/35 74/180/35 30/181/35 29/38/35 46/37/35 45/36/35 47/54/35 48/53/35 49/52/35 50/51/35 51/50/35 52/49/35 53/48/35 54/47/35 55/46/35 56/45/35 57/44/35 

vt -0.0787402 0.472441
f 28/25/34 32/182/34 46/164/34 29/163/34 

