# Alias OBJ Model File
# Exported from SketchUp, (c) 2000-2012 Trimble Navigation Limited
# File units = millimeters

mtllib PDMS_Casting2 Part 3.mtl

g Mesh1 Model

usemtl FrontColor
v 0 22 -3.52496e-016
vt 1.38778e-017 0.866142
vn 1 0 -0
v 0 0 -0
vt 0 0
v 0 0 -22
vt 0.866142 0
v 0 22 -22
vt 0.866142 0.866142
v 0 22 -21
vt 0.826772 0.866142
v 0 2 -21
vt 0.826772 0.0787402
v 0 2 -1
vt 0.0393701 0.0787402
v 0 22 -1
vt 0.0393701 0.866142
f 1/1/1 2/2/1 3/3/1 4/4/1 5/5/1 6/6/1 7/7/1 8/8/1 

vt -1.39767e-033 0.866142
vn -1.00713e-016 1.06817e-017 1
v -1.5 22 -3.52496e-016
vt -0.0590551 0.866142
v -1.5 0 -3.52496e-016
vt -0.0590551 8.47076e-035
f 1/9/2 9/10/2 10/11/2 2/2/2 

v -0.75 22 -8.9
vt -0.0295276 0.350394
vn 0 1 -0
v -1.5 22 -8.9
vt -0.0590551 0.350394
vt -0.0590551 1.38778e-017
vt 0 1.38778e-017
vt 0 0.0393701
v 1 22 -1
vt 0.0393701 0.0393701
v 1 22 -8.4
vt 0.0393701 0.330709
v -0.75 22 -8.4
vt -0.0295276 0.330709
f 11/12/3 12/13/3 9/14/3 1/15/3 8/16/3 13/17/3 14/18/3 15/19/3 

v -1.5 11 -8.9
vt 0.0590551 0.433071
vn 2.35201e-017 -1.3207e-016 -1
vt 0.0590551 0.866142
vt 0.0295276 0.866142
v -0.75 11 -8.9
vt 0.0295276 0.433071
f 16/20/4 12/21/4 11/22/4 17/23/4 

v -1.5 22 -13.1
vt -0.515748 0.866142
vn -1 -2.05775e-033 1.45629e-017
v -1.5 22 -22
vt -0.866142 0.866142
v -1.5 0 -22
vt -0.866142 1.21521e-034
vt -1.47378e-017 1.21521e-034
vt -1.47378e-017 0.866142
vt -0.350394 0.866142
vt -0.350394 0.433071
v -1.5 10.4565 -8.97156
vt -0.353211 0.411672
v -1.5 9.95 -9.18135
vt -0.36147 0.391732
v -1.5 9.51508 -9.51508
vt -0.374609 0.374609
v -1.5 9.18135 -9.95
vt -0.391732 0.36147
v -1.5 8.97156 -10.4565
vt -0.411672 0.353211
v -1.5 8.9 -11
vt -0.433071 0.350394
v -1.5 8.97156 -11.5435
vt -0.454469 0.353211
v -1.5 9.18135 -12.05
vt -0.474409 0.36147
v -1.5 9.51508 -12.4849
vt -0.491532 0.374609
v -1.5 9.95 -12.8187
vt -0.504671 0.391732
v -1.5 10.4565 -13.0284
vt -0.512931 0.411672
v -1.5 11 -13.1
vt -0.515748 0.433071
f 18/24/5 19/25/5 20/26/5 10/27/5 9/28/5 12/29/5 16/30/5 21/31/5 22/32/5 23/33/5 24/34/5 25/35/5 26/36/5 27/37/5 28/38/5 29/39/5 30/40/5 31/41/5 32/42/5 

v 1 22 -13.6
vt 0.0393701 0.535433
v 1 22 -21
vt 0.0393701 0.826772
vt 0 0.826772
vt 0 0.866142
vt -0.0590551 0.515748
v -0.75 22 -13.1
vt -0.0295276 0.515748
v -0.75 22 -13.6
vt -0.0295276 0.535433
f 33/43/3 34/44/3 5/45/3 4/46/3 19/10/3 18/47/3 35/48/3 36/49/3 

vt 0.330709 0.866142
vn 1 -4.67928e-017 -3.85987e-032
v 1 2 -1
v 1 2 -21
vt 0.535433 0.866142
v 1 11 -13.6
vt 0.535433 0.433071
v 1 10.3271 -13.5114
vt 0.531945 0.406578
v 1 9.7 -13.2517
vt 0.521719 0.38189
v 1 9.16152 -12.8385
vt 0.505452 0.36069
v 1 8.74833 -12.3
vt 0.484252 0.344423
v 1 8.48859 -11.6729
vt 0.459564 0.334197
v 1 8.4 -11
vt 0.433071 0.330709
v 1 8.48859 -10.3271
vt 0.406578 0.334197
v 1 8.74833 -9.7
vt 0.38189 0.344423
v 1 9.16152 -9.16152
vt 0.36069 0.36069
v 1 9.7 -8.74833
vt 0.344423 0.38189
v 1 10.3271 -8.48859
vt 0.334197 0.406578
v 1 11 -8.4
vt 0.330709 0.433071
f 14/50/6 13/8/6 37/7/6 38/6/6 34/5/6 33/51/6 39/52/6 40/53/6 41/54/6 42/55/6 43/56/6 44/57/6 45/58/6 46/59/6 47/60/6 48/61/6 49/62/6 50/63/6 51/64/6 

vt -1.04083e-017 0.866142
vn -2.64372e-016 -4.4062e-018 -1
vt -0.0393701 0.866142
vt -0.0393701 0.0787402
vt -1.04083e-017 0.0787402
f 8/65/7 13/66/7 37/67/7 7/68/7 

vt -0.0393701 0.0393701
vn -3.52496e-016 -1 7.49403e-034
vt 2.77556e-017 0.0393701
vt 2.77556e-017 0.826772
vt -0.0393701 0.826772
f 37/69/8 7/70/8 6/71/8 38/72/8 

vn 0 0 -1
vt 0 0.0787402
f 38/67/9 6/73/9 5/46/9 34/66/9 

vt 0.0393701 0.433071
vn 3.89978e-019 -6.24843e-036 1
vt -0.0295276 0.866142
v -0.75 11 -13.6
vt -0.0295276 0.433071
f 39/74/10 33/8/10 36/75/10 52/76/10 

vn 1 -6.84705e-018 -3.89978e-019
vt 0.515748 0.866142
v -0.75 11 -13.1
vt 0.515748 0.433071
v -0.75 10.4565 -13.0284
vt 0.512931 0.411672
v -0.75 9.95 -12.8187
vt 0.504671 0.391732
v -0.75 9.51508 -12.4849
vt 0.491532 0.374609
v -0.75 9.18135 -12.05
vt 0.474409 0.36147
v -0.75 8.97156 -11.5435
vt 0.454469 0.353211
v -0.75 8.9 -11
vt 0.433071 0.350394
v -0.75 8.97156 -10.4565
vt 0.411672 0.353211
v -0.75 9.18135 -9.95
vt 0.391732 0.36147
v -0.75 9.51508 -9.51508
vt 0.374609 0.374609
v -0.75 9.95 -9.18135
vt 0.36147 0.391732
v -0.75 10.4565 -8.97156
vt 0.353211 0.411672
vt 0.350394 0.433071
vt 0.350394 0.866142
v -0.75 11 -8.4
v -0.75 10.3271 -8.48859
v -0.75 9.7 -8.74833
v -0.75 9.16152 -9.16152
v -0.75 8.74833 -9.7
v -0.75 8.48859 -10.3271
v -0.75 8.4 -11
v -0.75 8.48859 -11.6729
v -0.75 8.74833 -12.3
v -0.75 9.16152 -12.8385
v -0.75 9.7 -13.2517
v -0.75 10.3271 -13.5114
f 52/52/11 36/51/11 35/77/11 53/78/11 54/79/11 55/80/11 56/81/11 57/82/11 58/83/11 59/84/11 60/85/11 61/86/11 62/87/11 63/88/11 64/89/11 17/90/11 11/91/11 15/50/11 65/64/11 66/63/11 67/62/11 68/61/11 69/60/11 70/59/11 71/58/11 72/57/11 73/56/11 74/55/11 75/54/11 76/53/11 

vn 0 0 1
vt -0.0590551 0.433071
f 35/75/12 18/10/12 32/92/12 53/76/12 

vt -0.0590551 0.496685
vn 0 0.130526 0.991445
vt -0.0590551 0.475101
vn 0 0.258819 0.965926
vt -0.0295276 0.475101
vt -0.0295276 0.496685
f 32/93/13 31/94/14 54/95/14 53/96/13 

vt -0.0590551 0.576626
vt -0.0590551 0.555043
vn 0 0.5 0.866025
vt -0.0295276 0.555043
vt -0.0295276 0.576626
f 31/97/14 30/98/15 55/99/15 54/100/14 

vt -0.0590551 0.618007
vt -0.0590551 0.596424
vn 0 0.608761 0.793353
vt -0.0295276 0.596424
vt -0.0295276 0.618007
f 30/101/15 29/102/16 56/103/16 55/104/15 

vn 0 0.793353 0.608761
vn 0 0.866025 0.5
f 29/101/17 28/102/18 57/103/18 56/104/17 

vn 0 0.965926 0.258819
f 28/97/18 27/98/19 58/99/19 57/100/18 

vn 0 1 1.6797e-016
f 27/93/19 26/94/20 59/95/20 58/96/19 

vt 0.0590551 -0.38363
vt 0.0590551 -0.362047
vn 0 0.965926 -0.258819
vt 0.0295276 -0.362047
vt 0.0295276 -0.38363
f 26/105/20 25/106/21 60/107/21 59/108/20 

vt 0.0590551 -0.245168
vt 0.0590551 -0.223585
vn 0 0.866025 -0.5
vt 0.0295276 -0.223585
vt 0.0295276 -0.245168
f 25/109/21 24/110/22 61/111/22 60/112/21 

vt 0.0590551 -0.0907329
vt 0.0590551 -0.0691498
vn 0 0.793353 -0.608761
vt 0.0295276 -0.0691498
vt 0.0295276 -0.0907329
f 24/113/22 23/114/23 62/115/23 61/116/22 

vt 0.0590551 0.0691498
vn 0 0.608761 -0.793353
vt 0.0590551 0.0907329
vn 0 0.5 -0.866025
vt 0.0295276 0.0907329
vt 0.0295276 0.0691498
f 23/117/24 22/118/25 63/119/25 62/120/24 

vt 0.0590551 0.223585
vt 0.0590551 0.245168
vn 0 0.258819 -0.965926
vt 0.0295276 0.245168
vt 0.0295276 0.223585
f 22/121/25 21/122/26 64/123/26 63/124/25 

vt 0.0590551 0.362047
vt 0.0590551 0.38363
vn 0 0.130526 -0.991445
vt 0.0295276 0.38363
vt 0.0295276 0.362047
f 21/125/26 16/126/27 17/127/27 64/128/26 

vn -3.89978e-019 6.24843e-036 -1
vt -0.0393701 0.433071
f 14/66/28 51/129/28 65/23/28 15/22/28 

vt -0.0393701 0.3862
vn 5.07077e-019 0.130526 -0.991445
vt -0.0393701 0.359478
vn 1.39546e-018 0.258819 -0.965926
vt 0.0295276 0.359478
vt 0.0295276 0.3862
f 51/130/29 50/131/30 66/132/30 65/133/29 

vt -0.0393701 0.247737
vt -0.0393701 0.221015
vn 3.08579e-018 0.5 -0.866025
vt 0.0295276 0.221015
vt 0.0295276 0.247737
f 50/134/30 49/135/31 67/136/31 66/137/30 

vt -0.0393701 0.0933023
vt -0.0393701 0.0665804
vn 4.56584e-018 0.707107 -0.707107
vt 0.0295276 0.0665804
vt 0.0295276 0.0933023
f 49/138/31 48/139/32 68/140/32 67/141/31 

vt -0.0393701 -0.0665804
vt -0.0393701 -0.0933023
vn 5.73473e-018 0.866025 -0.5
vt 0.0295276 -0.0933023
vt 0.0295276 -0.0665804
f 48/142/32 47/143/33 69/144/33 68/145/32 

vt -0.0393701 -0.221015
vt -0.0393701 -0.247737
vn 6.5128e-018 0.965926 -0.258819
vt 0.0295276 -0.247737
vt 0.0295276 -0.221015
f 47/146/33 46/147/34 70/148/34 69/149/33 

vt -0.0393701 -0.359478
vt -0.0393701 -0.3862
vn 6.84705e-018 1 -7.4187e-016
vt 0.0295276 -0.3862
vt 0.0295276 -0.359478
f 46/150/34 45/151/35 71/152/35 70/153/34 

vt 0.0393701 0.472532
vt 0.0393701 0.499254
vn 6.71467e-018 0.965926 0.258819
vt -0.0295276 0.499254
vt -0.0295276 0.472532
f 45/154/35 44/155/36 72/156/36 71/157/35 

vt 0.0393701 0.552473
vt 0.0393701 0.579195
vn 6.1247e-018 0.866025 0.5
vt -0.0295276 0.579195
vt -0.0295276 0.552473
f 44/158/36 43/159/37 73/160/37 72/161/36 

vt 0.0393701 0.593854
vt 0.0393701 0.620576
vn 5.11735e-018 0.707107 0.707107
vt -0.0295276 0.620576
vt -0.0295276 0.593854
f 43/162/37 42/163/38 74/164/38 73/165/37 

vn 3.76125e-018 0.5 0.866025
f 42/162/38 41/163/39 75/164/39 74/165/38 

vn 2.14884e-018 0.258819 0.965926
f 41/158/39 40/159/40 76/160/40 75/161/39 

vn 1.28036e-018 0.130526 0.991445
f 40/154/40 39/155/41 52/156/41 76/157/40 

vt 0.0590551 0
f 3/2/9 20/166/9 19/21/9 4/46/9 

vt 0.0590551 1.38778e-017
vn 0 -1 -0
f 10/167/42 20/21/42 3/46/42 2/2/42 

