# Alias OBJ Model File
# Exported from SketchUp, (c) 2000-2012 Trimble Navigation Limited
# File units = millimeters

mtllib PDMS Casting1.mtl

g Mesh1 Group1 Model

usemtl FrontColor
v 2 24 -26
vt -0.0787402 0.944882
vn 0 0 -1
v 2 2 -26
vt -0.0787402 0.0787402
v 42 2 -26
vt -1.65354 0.0787402
v 42 24 -26
vt -1.65354 0.944882
v 44 24 -26
vt -1.73228 0.944882
v 44 0 -26
vt -1.73228 0
v 1.52748e-016 0 -26
vt -6.01371e-018 0
v 3.05496e-016 24 -26
vt -1.20274e-017 0.944882
f 1/1/1 2/2/1 3/3/1 4/4/1 5/5/1 6/6/1 7/7/1 8/8/1 

v 2 24 -10
vt 0.472441 0.944882
vn 1 -3.92491e-018 7.90389e-017
v 2 24 2
vt 2.01013e-017 0.944882
v 2 2 2
vt 2.01013e-017 0.0787402
vt 1.10236 0.0787402
vt 1.10236 0.944882
v 2 24 -14
vt 0.629921 0.944882
v 2 13 -14
vt 0.629921 0.511811
v 2 12.4824 -13.9319
vt 0.627238 0.491432
v 2 12 -13.7321
vt 0.619372 0.472441
v 2 11.5858 -13.4142
vt 0.606859 0.456133
v 2 11.5277 -13.3385
vt 0.603877 0.453845
v 2 11.2679 -13
vt 0.590551 0.44362
v 2 11.0681 -12.5176
vt 0.571561 0.435754
v 2 11 -12
vt 0.551181 0.433071
v 2 11.0681 -11.4824
vt 0.530802 0.435754
v 2 11.2679 -11
vt 0.511811 0.44362
v 2 11.5277 -10.6615
vt 0.498485 0.453845
v 2 11.5858 -10.5858
vt 0.495503 0.456133
v 2 12 -10.2679
vt 0.48299 0.472441
v 2 12.4824 -10.0681
vt 0.475124 0.491432
v 2 13 -10
vt 0.472441 0.511811
f 9/9/2 10/10/2 11/11/2 2/12/2 1/13/2 12/14/2 13/15/2 14/16/2 15/17/2 16/18/2 17/19/2 18/20/2 19/21/2 20/22/2 21/23/2 22/24/2 23/25/2 24/26/2 25/27/2 26/28/2 27/29/2 

v 1.00461e-015 24 -9
vt 3.95517e-017 0.433071
vn 0 1 -0
v 1.11624e-016 24 2
vt 4.39463e-018 1.38778e-017
vt 0.0787402 1.38778e-017
vt 0.0787402 0.472441
v 1 24 -10
vt 0.0393701 0.472441
v 1 24 -9
vt 0.0393701 0.433071
f 28/30/3 29/31/3 10/32/3 9/33/3 30/34/3 31/35/3 

vt -1.10236 -1.11787e-034
vn -1 7.46335e-018 -1.90426e-017
v 0 0 2
vt -1.38778e-017 -1.97233e-051
vt -1.38778e-017 0.944882
vt -0.433071 0.944882
v 1.05749e-015 13 -9
vt -0.433071 0.511811
v 1.05749e-015 12.2235 -9.10222
vt -0.437095 0.481242
v 1.05749e-015 11.5 -9.40192
vt -0.448895 0.452756
v 1.05749e-015 10.8787 -9.87868
vt -0.467665 0.428294
v 1.05749e-015 10.4019 -10.5
vt -0.492126 0.409525
v 1.05749e-015 10.1022 -11.2235
vt -0.520612 0.397725
v 1.05749e-015 10 -12
vt -0.551181 0.393701
v 1.05749e-015 10.1022 -12.7765
vt -0.58175 0.397725
v 1.05749e-015 10.4019 -13.5
vt -0.610236 0.409525
v 1.05749e-015 10.8787 -14.1213
vt -0.634698 0.428294
v 1.05749e-015 11.5 -14.5981
vt -0.653468 0.452756
v 1.05749e-015 12.2235 -14.8978
vt -0.665267 0.481242
v 1.05749e-015 13 -15
vt -0.669291 0.511811
v 1.16324e-015 24 -15
vt -0.669291 0.944882
vt -1.10236 0.944882
f 7/36/4 32/37/4 29/38/4 28/39/4 33/40/4 34/41/4 35/42/4 36/43/4 37/44/4 38/45/4 39/46/4 40/47/4 41/48/4 42/49/4 43/50/4 44/51/4 45/52/4 46/53/4 8/54/4 

vt -1.73228 1.10236
vn 0 -1 -0
v 44 0 2
vt 0 1.38778e-017
vt -6.01371e-018 1.10236
f 6/55/5 47/6/5 32/56/5 7/57/5 

v 44 24 -9
vt 0.433071 0.944882
vn 1 0 -0
v 44 24 2
vt 1.38778e-017 0.944882
vt 0 0
vt 1.10236 0
v 44 24 -15
vt 0.669291 0.944882
v 44 12 -15
vt 0.669291 0.472441
v 44 11.2235 -14.8978
vt 0.665267 0.441872
v 44 10.5 -14.5981
vt 0.653468 0.413386
v 44 9.87868 -14.1213
vt 0.634698 0.388924
v 44 9.40192 -13.5
vt 0.610236 0.370154
v 44 9.10222 -12.7765
vt 0.58175 0.358355
v 44 9 -12
vt 0.551181 0.354331
v 44 9.10222 -11.2235
vt 0.520612 0.358355
v 44 9.40192 -10.5
vt 0.492126 0.370154
v 44 9.87868 -9.87868
vt 0.467665 0.388924
v 44 10.5 -9.40192
vt 0.448895 0.413386
v 44 11.2235 -9.10222
vt 0.437095 0.441872
v 44 12 -9
vt 0.433071 0.472441
f 48/58/6 49/59/6 47/60/6 6/61/6 5/13/6 50/62/6 51/63/6 52/64/6 53/65/6 54/66/6 55/67/6 56/68/6 57/69/6 58/70/6 59/71/6 60/72/6 61/73/6 62/74/6 63/75/6 

v 42 24 -10
vt 1.65354 0.472441
v 42 24 2
vt 1.65354 1.38778e-017
vt 1.73228 1.38778e-017
vt 1.73228 0.433071
v 43 24 -9
vt 1.69291 0.433071
v 43 24 -10
vt 1.69291 0.472441
f 64/76/3 65/77/3 49/78/3 48/79/3 66/80/3 67/81/3 

vt -1.10236 0.0787402
vn -1 0 -0
v 42 2 2
vt -1.38778e-017 0.0787402
vt -0.472441 0.944882
v 42 14 -10
vt -0.472441 0.551181
v 42 12 -10
vt -0.472441 0.472441
v 42 11.4824 -10.0681
vt -0.475124 0.452061
v 42 11 -10.2679
vt -0.48299 0.433071
v 42 10.5858 -10.5858
vt -0.495503 0.416763
v 42 10.2679 -11
vt -0.511811 0.40425
v 42 10.0681 -11.4824
vt -0.530802 0.396384
v 42 10 -12
v 42 10.0681 -12.5176
vt -0.571561 0.396384
v 42 10.2679 -13
vt -0.590551 0.40425
v 42 10.5858 -13.4142
vt -0.606859 0.416763
v 42 11 -13.7321
vt -0.619372 0.433071
v 42 11.4824 -13.9319
vt -0.627238 0.452061
v 42 12 -14
vt -0.629921 0.472441
v 42 14 -14
vt -0.629921 0.551181
v 42 24 -14
vt -0.629921 0.944882
f 3/82/7 68/83/7 65/38/7 64/84/7 69/85/7 70/86/7 71/87/7 72/88/7 73/89/7 74/90/7 75/91/7 76/46/7 77/92/7 78/93/7 79/94/7 80/95/7 81/96/7 82/97/7 83/98/7 84/99/7 4/54/7 

vt 0.0787402 1.10236
vt 1.65354 1.10236
f 2/100/3 11/32/3 68/77/3 3/101/3 

vt 0.0787402 0.944882
vn -2.19313e-018 4.14896e-018 1
vt 4.39463e-018 0.944882
vt -3.04358e-035 5.75784e-035
vt 1.73228 1.57624e-035
vt 1.73228 0.944882
vt 1.65354 0.944882
vt 1.65354 0.0787402
vt 0.0787402 0.0787402
f 10/102/8 29/103/8 32/104/8 47/105/8 49/106/8 65/107/8 68/108/8 11/109/8 

vn -4.37124e-018 1.41835e-016 -1
vt -1.69291 0.944882
v 43 14 -10
vt -1.69291 0.551181
vt -1.65354 0.551181
f 64/4/9 67/110/9 85/111/9 69/112/9 

v 43 24 -15
vn 1 7.96815e-032 -1.45465e-030
v 43 24 -14
v 43 14 -14
vt 0.629921 0.551181
v 43 12 -14
vt 0.629921 0.472441
v 43 11.4824 -13.9319
vt 0.627238 0.452061
v 43 11 -13.7321
vt 0.619372 0.433071
v 43 10.5858 -13.4142
vt 0.606859 0.416763
v 43 10.2679 -13
vt 0.590551 0.40425
v 43 10.0681 -12.5176
vt 0.571561 0.396384
v 43 10 -12
vt 0.551181 0.393701
v 43 10.0681 -11.4824
vt 0.530802 0.396384
v 43 10.2679 -11
vt 0.511811 0.40425
v 43 10.5858 -10.5858
vt 0.495503 0.416763
v 43 11 -10.2679
vt 0.48299 0.433071
v 43 11.4824 -10.0681
vt 0.475124 0.452061
v 43 12 -10
vt 0.472441 0.472441
vt 0.472441 0.551181
v 43 12 -9
v 43 11.2235 -9.10222
v 43 10.5 -9.40192
v 43 9.87868 -9.87868
v 43 9.40192 -10.5
v 43 9.10222 -11.2235
v 43 9 -12
v 43 9.10222 -12.7765
v 43 9.40192 -13.5
v 43 9.87868 -14.1213
v 43 10.5 -14.5981
v 43 11.2235 -14.8978
v 43 12 -15
f 86/62/10 87/14/10 88/113/10 89/114/10 90/115/10 91/116/10 92/117/10 93/118/10 94/119/10 95/120/10 96/121/10 97/122/10 98/123/10 99/124/10 100/125/10 101/126/10 85/127/10 67/9/10 66/58/10 102/75/10 103/74/10 104/73/10 105/72/10 106/71/10 107/70/10 108/69/10 109/68/10 110/67/10 111/66/10 112/65/10 113/64/10 114/63/10 

vt 1.73228 0.669291
vt 1.73228 1.10236
vt 1.65354 0.629921
vt 1.69291 0.629921
vt 1.69291 0.669291
f 50/128/3 5/129/3 4/101/3 84/130/3 87/131/3 86/132/3 

vt 1.65354 0.551181
vn 0 0 1
vt 1.69291 0.551181
vt 1.69291 0.944882
f 83/133/11 88/134/11 87/135/11 84/107/11 

f 82/76/11 89/81/11 88/134/11 83/133/11 

vt 1.65354 0.530065
vn 0 0.258819 0.965926
vt 1.69291 0.530065
vt 1.69291 0.55062
vn 0 0.130526 0.991445
vt 1.65354 0.55062
f 81/136/12 90/137/12 89/138/13 82/139/13 

vt 1.65354 0.637129
vn 0 0.5 0.866025
vt 1.69291 0.637129
vt 1.69291 0.657684
vt 1.65354 0.657684
f 80/140/14 91/141/14 90/142/12 81/143/12 

vt 1.65354 0.700073
vn 0 0.608761 0.793353
vt 1.69291 0.700073
vt 1.69291 0.720628
vt 1.65354 0.720628
f 79/144/15 92/145/15 91/146/14 80/147/14 

vt 1.65354 0.714608
vn 0 0.866025 0.5
vt 1.69291 0.714608
vt 1.69291 0.735163
vn 0 0.793353 0.608761
vt 1.65354 0.735163
f 78/148/16 93/149/16 92/150/17 79/151/17 

vt 1.65354 0.679743
vn 0 0.965926 0.258819
vt 1.69291 0.679743
vt 1.69291 0.700298
vt 1.65354 0.700298
f 77/152/18 94/153/18 93/154/16 78/155/16 

vt 1.65354 0.597854
vn 0 1 -1.81968e-016
vt 1.69291 0.597854
vt 1.69291 0.618409
vt 1.65354 0.618409
f 76/156/19 95/157/19 94/158/18 77/159/18 

vt -1.65354 -0.474522
vn 0 0.965926 -0.258819
vt -1.69291 -0.474522
vt -1.69291 -0.495077
vt -1.65354 -0.495077
f 75/160/20 96/161/20 95/162/19 76/163/19 

vt -1.65354 -0.318152
vn 0 0.866025 -0.5
vt -1.69291 -0.318152
vt -1.69291 -0.338707
vt -1.65354 -0.338707
f 74/164/21 97/165/21 96/166/20 75/167/20 

vt -1.65354 -0.1394
vn 0 0.793353 -0.608761
vt -1.69291 -0.1394
vt -1.69291 -0.159955
vt -1.65354 -0.159955
f 73/168/22 98/169/22 97/170/21 74/171/21 

vt -1.65354 0.0495525
vn 0 0.5 -0.866025
vt -1.69291 0.0495525
vt -1.69291 0.0289972
vn 0 0.608761 -0.793353
vt -1.65354 0.0289972
f 72/172/23 99/173/23 98/174/24 73/175/24 

vt -1.65354 0.235828
vn 0 0.258819 -0.965926
vt -1.69291 0.235828
vt -1.69291 0.215273
vt -1.65354 0.215273
f 71/176/25 100/177/25 99/178/23 72/179/23 

vt -1.65354 0.406733
vn 0 0.130526 -0.991445
vt -1.69291 0.406733
vt -1.69291 0.386178
vt -1.65354 0.386178
f 70/180/26 101/181/26 100/182/25 71/183/25 

vt -1.69291 0.472441
vt -1.65354 0.472441
f 69/112/1 85/111/1 101/184/1 70/185/1 

vt 1.73228 0.472441
vn 1.45465e-030 0 1
f 51/186/27 50/106/27 86/135/27 114/81/27 

vt 1.73228 0.524926
vn 1.38447e-030 0.258819 0.965926
vt 1.73228 0.555759
vn 1.43181e-030 0.130526 0.991445
vt 1.69291 0.555759
vt 1.69291 0.524926
f 52/187/28 51/188/29 114/189/29 113/190/28 

vt 1.73228 0.63199
vn 1.21993e-030 0.5 0.866025
vt 1.73228 0.662823
vt 1.69291 0.662823
vt 1.69291 0.63199
f 53/191/30 52/192/28 113/193/28 112/194/30 

vt 1.73228 0.694934
vn 9.72253e-031 0.707107 0.707107
vt 1.73228 0.725767
vt 1.69291 0.725767
vt 1.69291 0.694934
f 54/195/31 53/196/30 112/197/30 111/198/31 

vt 1.73228 0.709469
vn 6.58321e-031 0.866025 0.5
vt 1.73228 0.740302
vt 1.69291 0.740302
vt 1.69291 0.709469
f 55/199/32 54/200/31 111/201/31 110/202/32 

vt 1.73228 0.674604
vn 2.99526e-031 0.965926 0.258819
vt 1.73228 0.705437
vt 1.69291 0.705437
vt 1.69291 0.674604
f 56/203/33 55/204/32 110/205/32 109/206/33 

vt 1.73228 0.592715
vn -7.96815e-032 1 -0
vt 1.73228 0.623548
vt 1.69291 0.623548
vt 1.69291 0.592715
f 57/207/34 56/208/33 109/209/33 108/210/34 

vt -1.73228 -0.469383
vn -4.53459e-031 0.965926 -0.258819
vt -1.73228 -0.500216
vt -1.69291 -0.500216
vt -1.69291 -0.469383
f 58/211/35 57/212/34 108/213/34 107/214/35 

vt -1.73228 -0.313013
vn -7.96333e-031 0.866025 -0.5
vt -1.73228 -0.343846
vt -1.69291 -0.343846
vt -1.69291 -0.313013
f 59/215/36 58/216/35 107/217/35 106/218/36 

vt -1.73228 -0.134261
vn -1.08494e-030 0.707107 -0.707107
vt -1.73228 -0.165094
vt -1.69291 -0.165094
vt -1.69291 -0.134261
f 60/219/37 59/220/36 106/221/36 105/222/37 

vt -1.73228 0.0546913
vn -1.29961e-030 0.5 -0.866025
vt -1.73228 0.0238583
vt -1.69291 0.0238583
vt -1.69291 0.0546913
f 61/223/38 60/224/37 105/225/37 104/226/38 

vt -1.73228 0.240967
vn -1.42571e-030 0.258819 -0.965926
vt -1.73228 0.210134
vt -1.69291 0.210134
vt -1.69291 0.240967
f 62/227/39 61/228/38 104/229/38 103/230/39 

vt -1.73228 0.411872
vn -1.45261e-030 0.130526 -0.991445
vt -1.73228 0.381039
vt -1.69291 0.381039
vt -1.69291 0.411872
f 63/231/40 62/232/39 103/233/39 102/234/40 

vn -1.45465e-030 0 -1
vt -1.73228 0.472441
f 48/5/41 63/235/41 102/184/41 66/110/41 

vt -3.76562e-017 0.511811
vn 9.18364e-018 4.41436e-035 -1
vt -3.55745e-017 0.944882
vt -0.0393701 0.944882
v 1 13 -9
vt -0.0393701 0.511811
f 33/236/42 28/237/42 31/238/42 115/239/42 

vn -1 7.6082e-018 -9.18364e-018
v 1 13 -10
vt -0.472441 0.511811
v 1 12.4824 -10.0681
vt -0.475124 0.491432
v 1 12 -10.2679
vt -0.48299 0.472441
v 1 11.5858 -10.5858
vt -0.495503 0.456133
v 1 11.5277 -10.6615
vt -0.498485 0.453845
v 1 11.2679 -11
vt -0.511811 0.44362
v 1 11.0681 -11.4824
vt -0.530802 0.435754
v 1 11 -12
vt -0.551181 0.433071
v 1 11.0681 -12.5176
vt -0.571561 0.435754
v 1 11.2679 -13
vt -0.590551 0.44362
v 1 11.5277 -13.3385
vt -0.603877 0.453845
v 1 11.5858 -13.4142
vt -0.606859 0.456133
v 1 12 -13.7321
vt -0.619372 0.472441
v 1 12.4824 -13.9319
vt -0.627238 0.491432
v 1 13 -14
vt -0.629921 0.511811
v 1 24 -14
v 1 24 -15
v 1 13 -15
v 1 12.2235 -14.8978
v 1 11.5 -14.5981
v 1 10.8787 -14.1213
v 1 10.4019 -13.5
v 1 10.1022 -12.7765
v 1 10 -12
v 1 10.1022 -11.2235
v 1 10.4019 -10.5
v 1 10.8787 -9.87868
v 1 11.5 -9.40192
v 1 12.2235 -9.10222
f 30/84/43 116/240/43 117/241/43 118/242/43 119/243/43 120/244/43 121/245/43 122/246/43 123/247/43 124/248/43 125/249/43 126/250/43 127/251/43 128/252/43 129/253/43 130/254/43 131/99/43 132/53/43 133/52/43 134/51/43 135/50/43 136/49/43 137/48/43 138/47/43 139/46/43 140/45/43 141/44/43 142/43/43 143/42/43 144/41/43 115/40/43 31/39/43 

vt -0.0787402 0.511811
f 27/255/1 116/239/1 30/238/1 9/1/1 

vt -0.0787402 0.445766
vn 1.64478e-017 0.130526 -0.991445
vt -0.0787402 0.425211
vn 1.77982e-017 0.258819 -0.965926
vt -0.0393701 0.425211
vt -0.0393701 0.445766
f 27/256/44 26/257/45 117/258/45 116/259/44 

vt -0.0787402 0.272202
vt -0.0787402 0.251646
vn 1.95674e-017 0.5 -0.866025
vt -0.0393701 0.251646
vt -0.0393701 0.272202
f 26/260/45 25/261/46 118/262/46 117/263/45 

vt -0.0787402 0.0807868
vt -0.0787402 0.0602315
vn 2.00031e-017 0.707107 -0.707107
vt -0.0393701 0.0602315
vt -0.0393701 0.0807868
f 25/264/46 24/265/47 119/266/47 118/267/46 

vt -0.0787402 -0.115433
vt -0.0787402 -0.119191
vn 1.9708e-017 0.793353 -0.608761
vt -0.0393701 -0.119191
vt -0.0393701 -0.115433
f 24/268/47 23/269/48 120/270/48 119/271/47 

vt -0.0787402 -0.135988
vn 1.90757e-017 0.866025 -0.5
vt -0.0393701 -0.135988
f 23/269/48 22/272/49 121/273/49 120/270/48 

vt -0.0787402 -0.303086
vt -0.0787402 -0.323641
vn 1.68483e-017 0.965926 -0.258819
vt -0.0393701 -0.323641
vt -0.0393701 -0.303086
f 22/274/49 21/275/50 122/276/50 121/277/49 

vt -0.0787402 -0.469383
vt -0.0787402 -0.489939
vn 1.34727e-017 1 -0
vt -0.0393701 -0.489939
vt -0.0393701 -0.469383
f 21/278/50 20/279/51 123/280/51 122/281/50 

vt 0.0787402 0.602993
vt 0.0787402 0.623548
vn 9.17896e-018 0.965926 0.258819
vt 0.0393701 0.623548
vt 0.0393701 0.602993
f 20/282/51 19/283/52 124/284/52 123/285/51 

vt 0.0787402 0.694809
vt 0.0787402 0.715364
vn 4.25969e-018 0.866025 0.5
vt 0.0393701 0.715364
vt 0.0393701 0.694809
f 19/286/52 18/287/53 125/288/53 124/289/52 

vt 0.0787402 0.738575
vt 0.0787402 0.755372
vn 1.66919e-018 0.793353 0.608761
vt 0.0393701 0.755372
vt 0.0393701 0.738575
f 18/290/53 17/291/54 126/292/54 125/293/53 

vt 0.0787402 0.75913
vn -9.49875e-019 0.707107 0.707107
vt 0.0393701 0.75913
f 17/291/54 16/294/55 127/295/55 126/292/54 

vt 0.0787402 0.731307
vt 0.0787402 0.751862
vn -6.0947e-018 0.5 0.866025
vt 0.0393701 0.751862
vt 0.0393701 0.731307
f 16/296/55 15/297/56 128/298/56 127/299/55 

vt 0.0787402 0.673502
vt 0.0787402 0.694057
vn -1.08242e-017 0.258819 0.965926
vt 0.0393701 0.694057
vt 0.0393701 0.673502
f 15/300/56 14/301/57 129/302/57 128/303/56 

vt 0.0787402 0.569098
vt 0.0787402 0.589654
vn -1.29307e-017 0.130526 0.991445
vt 0.0393701 0.589654
vt 0.0393701 0.569098
f 14/304/57 13/305/58 130/306/58 129/307/57 

vt 0.0787402 0.511811
vt 0.0393701 0.944882
vt 0.0393701 0.511811
f 13/308/11 12/102/11 131/309/11 130/310/11 

vt 1.20274e-017 1.10236
vt 4.57967e-017 0.669291
vt 0.0393701 0.669291
vt 0.0393701 0.629921
vt 0.0787402 0.629921
f 1/100/3 8/311/3 46/312/3 132/313/3 131/314/3 12/315/3 

vt 3.96502e-017 0.944882
vn -9.18364e-018 8.82872e-035 1
vt 3.54868e-017 0.511811
f 46/316/59 45/317/59 133/310/59 132/309/59 

vt 3.61572e-017 0.594792
vn -8.11201e-018 0.130526 0.991445
vt 3.61901e-017 0.56396
vn -6.90157e-018 0.258819 0.965926
vt 0.0393701 0.56396
vt 0.0393701 0.594792
f 45/318/60 44/319/61 134/320/61 133/321/60 

vt 3.76203e-017 0.699196
vt 3.76915e-017 0.668363
vn -4.14917e-018 0.5 0.866025
vt 0.0393701 0.668363
vt 0.0393701 0.699196
f 44/322/61 43/323/62 135/324/62 134/325/61 

vt 3.94471e-017 0.757001
vt 3.95099e-017 0.726168
vn -1.11401e-018 0.707107 0.707107
vt 0.0393701 0.726168
vt 0.0393701 0.757001
f 43/326/62 42/327/63 136/328/63 135/329/62 

vt 4.20977e-017 0.764269
vt 4.20798e-017 0.733436
vn 1.99707e-018 0.866025 0.5
vt 0.0393701 0.733436
vt 0.0393701 0.764269
f 42/330/63 41/331/64 137/332/64 136/333/63 

vt 4.72379e-017 0.720503
vt 4.69763e-017 0.68967
vn 4.97205e-018 0.965926 0.258819
vt 0.0393701 0.68967
vt 0.0393701 0.720503
f 41/334/64 40/335/65 138/336/65 137/337/64 

vt 6.99101e-017 0.628687
vt 6.84243e-017 0.597854
vn 7.6082e-018 1 -0
vt 0.0393701 0.597854
vt 0.0393701 0.628687
f 40/338/65 39/339/66 139/340/66 138/341/65 

vt -4.71876e-018 -0.495077
vt -6.76608e-018 -0.464244
vn 9.72586e-018 0.965926 -0.258819
vt -0.0393701 -0.464244
vt -0.0393701 -0.495077
f 39/342/66 38/343/67 140/344/67 139/345/66 

vt -2.72897e-017 -0.32878
vt -2.80746e-017 -0.297947
vn 1.11807e-017 0.866025 -0.5
vt -0.0393701 -0.297947
vt -0.0393701 -0.32878
f 38/346/67 37/347/68 141/348/68 140/349/67 

vt -3.22343e-017 -0.141127
vt -3.27015e-017 -0.110294
vn 1.18736e-017 0.707107 -0.707107
vt -0.0393701 -0.110294
vt -0.0393701 -0.141127
f 37/350/68 36/351/69 142/352/69 141/353/68 

vt -3.46083e-017 0.0550927
vt -3.48902e-017 0.0859257
vn 1.17574e-017 0.5 -0.866025
vt -0.0393701 0.0859257
vt -0.0393701 0.0550927
f 36/354/69 35/355/70 143/356/70 142/357/69 

vt -3.60962e-017 0.246507
vt -3.62418e-017 0.27734
vn 1.08399e-017 0.258819 -0.965926
vt -0.0393701 0.27734
vt -0.0393701 0.246507
f 35/358/70 34/359/71 144/360/71 143/361/70 

vt -3.71814e-017 0.420072
vt -3.72224e-017 0.450905
vn 1.00981e-017 0.130526 -0.991445
vt -0.0393701 0.450905
vt -0.0393701 0.420072
f 34/362/71 33/363/72 115/364/72 144/365/71 

