# Alias OBJ Model File
# Exported from SketchUp, (c) 2000-2012 Trimble Navigation Limited
# File units = millimeters

mtllib PDMS_Casting2 Part 2.mtl

g Mesh1 Model

usemtl FrontColor
v 45.6 0 20.7836
vt -0.818251 0
vn 1 0 -0
v 45.6 22 20.7836
vt -0.818251 0.866142
v 45.6 22 21.7836
vt -0.857621 0.866142
v 45.6 0 21.7836
vt -0.857621 0
f 1/1/1 2/2/1 3/3/1 4/4/1 

vt -1.79528 0
vn 0 0 -1
v 1.6 0 20.7836
vt -0.0629921 0
v 1.6 22 20.7836
vt -0.0629921 0.866142
v 2.6 22 20.7836
vt -0.102362 0.866142
v 2.6 2 20.7836
vt -0.102362 0.0787402
v 44.6 2 20.7836
vt -1.75591 0.0787402
v 44.6 22 20.7836
vt -1.75591 0.866142
vt -1.79528 0.866142
f 1/5/2 5/6/2 6/7/2 7/8/2 8/9/2 9/10/2 10/11/2 2/12/2 

vt -1.79528 -0.857621
vn 0 -1 -0
v 1.6 0 21.7836
vt -0.0629921 -0.857621
vt -0.0629921 -0.818251
vt -1.79528 -0.818251
f 4/13/3 11/14/3 5/15/3 1/16/3 

v 1.6 22 21.7836
vt 0.0629921 0.866142
vn 0 0 1
vt 0.0629921 0
vt 1.79528 0
vt 1.79528 0.866142
v 25.7 22 21.7836
vt 1.01181 0.866142
v 25.7 11 21.7836
vt 1.01181 0.433071
v 25.6284 10.4565 21.7836
vt 1.00899 0.411672
v 25.4669 10.0665 21.7836
vt 1.00263 0.39632
v 25.4187 9.95 21.7836
vt 1.00073 0.391732
v 25.0849 9.51508 21.7836
vt 0.987595 0.374609
v 24.65 9.18135 21.7836
vt 0.970472 0.36147
v 24.1435 8.97156 21.7836
vt 0.950532 0.353211
v 23.6 8.9 21.7836
vt 0.929134 0.350394
v 23.0565 8.97156 21.7836
vt 0.907735 0.353211
v 22.55 9.18135 21.7836
vt 0.887795 0.36147
v 22.1151 9.51508 21.7836
vt 0.870672 0.374609
v 21.7813 9.95 21.7836
vt 0.857533 0.391732
v 21.7331 10.0665 21.7836
vt 0.855633 0.39632
v 21.5716 10.4565 21.7836
vt 0.849274 0.411672
v 21.5 11 21.7836
vt 0.846457 0.433071
v 21.5 22 21.7836
vt 0.846457 0.866142
f 12/17/4 11/18/4 4/19/4 3/20/4 13/21/4 14/22/4 15/23/4 16/24/4 17/25/4 18/26/4 19/27/4 20/28/4 21/29/4 22/30/4 23/31/4 24/32/4 25/33/4 26/34/4 27/35/4 28/36/4 29/37/4 

vt 0.857621 -8.07435e-018
vn -1 -1.2818e-016 2.81997e-015
vt 0.857621 0.866142
vt 0.818251 0.866142
vt 0.818251 -8.07435e-018
f 11/38/5 12/39/5 6/40/5 5/41/5 

v 21 22 19.7836
vt 0.826772 -0.778881
vn 0 1 -0
v 2.6 22 19.7836
vt 0.102362 -0.778881
vt 0.102362 -0.818251
vt 0.0629921 -0.818251
vt 0.0629921 -0.857621
vt 0.846457 -0.857621
v 21.5 22 21.0336
vt 0.846457 -0.828094
v 21 22 21.0336
vt 0.826772 -0.828094
f 30/42/6 31/43/6 7/44/6 6/45/6 12/46/6 29/47/6 32/48/6 33/49/6 

v 26.1114 10.3271 19.7836
vt -1.02801 0.406578
v 26.2 11 19.7836
vt -1.0315 0.433071
v 26.2 22 19.7836
vt -1.0315 0.866142
v 44.6 22 19.7836
v 44.6 2 19.7836
v 2.6 2 19.7836
vt -0.826772 0.866142
v 21 11 19.7836
vt -0.826772 0.433071
v 21.0886 10.3271 19.7836
vt -0.83026 0.406578
v 21.3483 9.7 19.7836
vt -0.840486 0.38189
v 21.7615 9.16152 19.7836
vt -0.856753 0.36069
v 22.3 8.74833 19.7836
vt -0.877953 0.344423
v 22.9271 8.48859 19.7836
vt -0.902641 0.334197
v 23.6 8.4 19.7836
vt -0.929134 0.330709
v 24.2729 8.48859 19.7836
vt -0.955627 0.334197
v 24.9 8.74833 19.7836
vt -0.980315 0.344423
v 25.4385 9.16152 19.7836
vt -1.00151 0.36069
v 25.8517 9.7 19.7836
vt -1.01778 0.38189
f 34/50/2 35/51/2 36/52/2 37/11/2 38/10/2 39/9/2 31/8/2 30/53/2 40/54/2 41/55/2 42/56/2 43/57/2 44/58/2 45/59/2 46/60/2 47/61/2 48/62/2 49/63/2 50/64/2 

vt 0.778881 0.564003
vn -0.991445 0.130526 -0
vt 0.778881 0.537281
vn -0.965926 0.258819 -0
v 26.1114 10.3271 21.0336
vt 0.828094 0.537281
v 26.2 11 21.0336
vt 0.828094 0.564003
f 35/65/7 34/66/8 51/67/8 52/68/7 

vt 0.778881 0.76903
vt 0.778881 0.742308
vn -0.866025 0.5 -0
v 25.8517 9.7 21.0336
vt 0.828094 0.742308
vt 0.828094 0.76903
f 34/69/8 50/70/9 53/71/9 51/72/8 

vt 0.778881 0.92256
vt 0.778881 0.895838
vn -0.707107 0.707107 -0
v 25.4385 9.16152 21.0336
vt 0.828094 0.895838
vt 0.828094 0.92256
f 50/73/9 49/74/10 54/75/10 53/76/9 

vt 0.778881 1.01413
vt 0.778881 0.987407
vn -0.5 0.866025 -0
v 24.9 8.74833 21.0336
vt 0.828094 0.987407
vt 0.828094 1.01413
f 49/77/10 48/78/11 55/79/11 54/80/10 

vt 0.778881 1.0375
vt 0.778881 1.01078
vn -0.258819 0.965926 -0
v 24.2729 8.48859 21.0336
vt 0.828094 1.01078
vt 0.828094 1.0375
f 48/81/11 47/82/12 56/83/12 55/84/11 

vt 0.778881 0.991073
vt 0.778881 0.964351
v 23.6 8.4 21.0336
vt 0.828094 0.964351
vt 0.828094 0.991073
f 47/85/12 46/86/6 57/87/6 56/88/12 

vt -0.778881 -0.878019
vt -0.778881 -0.851297
vn 0.258819 0.965926 -0
v 22.9271 8.48859 21.0336
vt -0.828094 -0.851297
vt -0.828094 -0.878019
f 46/89/6 45/90/13 58/91/13 57/92/6 

vt -0.778881 -0.70604
vt -0.778881 -0.679318
vn 0.5 0.866025 -0
v 22.3 8.74833 21.0336
vt -0.828094 -0.679318
vt -0.828094 -0.70604
f 45/93/13 44/94/14 59/95/14 58/96/13 

vt -0.778881 -0.486856
vt -0.778881 -0.460134
vn 0.707107 0.707107 -0
v 21.7615 9.16152 21.0336
vt -0.828094 -0.460134
vt -0.828094 -0.486856
f 44/97/14 43/98/15 60/99/15 59/100/14 

vt -0.778881 -0.235404
vt -0.778881 -0.208682
vn 0.866025 0.5 -0
v 21.3483 9.7 21.0336
vt -0.828094 -0.208682
vt -0.828094 -0.235404
f 43/101/15 42/102/16 61/103/16 60/104/15 

vt -0.778881 0.0311802
vt -0.778881 0.0579021
vn 0.965926 0.258819 -0
v 21.0886 10.3271 21.0336
vt -0.828094 0.0579021
vt -0.828094 0.0311802
f 42/105/16 41/106/17 62/107/17 61/108/16 

vt -0.778881 0.294729
vt -0.778881 0.321451
vn 0.991445 0.130526 -0
v 21 11 21.0336
vt -0.828094 0.321451
vt -0.828094 0.294729
f 41/109/17 40/110/18 63/111/18 62/112/17 

vt -0.778881 0.433071
vt -0.778881 0.866142
vt -0.828094 0.866142
vt -0.828094 0.433071
f 40/113/1 30/114/1 33/115/1 63/116/1 

vt -0.846457 0.866142
v 21.5 11 21.0336
vt -0.846457 0.433071
v 21.5716 10.4565 21.0336
vt -0.849274 0.411672
v 21.7331 10.0665 21.0336
vt -0.855633 0.39632
v 21.7813 9.95 21.0336
vt -0.857533 0.391732
v 22.1151 9.51508 21.0336
vt -0.870672 0.374609
v 22.55 9.18135 21.0336
vt -0.887795 0.36147
v 23.0565 8.97156 21.0336
vt -0.907735 0.353211
v 23.6 8.9 21.0336
vt -0.929134 0.350394
v 24.1435 8.97156 21.0336
vt -0.950532 0.353211
v 24.65 9.18135 21.0336
vt -0.970472 0.36147
v 25.0849 9.51508 21.0336
vt -0.987595 0.374609
v 25.4187 9.95 21.0336
vt -1.00073 0.391732
v 25.4669 10.0665 21.0336
vt -1.00263 0.39632
v 25.6284 10.4565 21.0336
vt -1.00899 0.411672
v 25.7 11 21.0336
vt -1.01181 0.433071
v 25.7 22 21.0336
vt -1.01181 0.866142
v 26.2 22 21.0336
f 33/53/2 32/117/2 64/118/2 65/119/2 66/120/2 67/121/2 68/122/2 69/123/2 70/124/2 71/125/2 72/126/2 73/127/2 74/128/2 75/129/2 76/130/2 77/131/2 78/132/2 79/133/2 80/52/2 52/51/2 51/50/2 53/64/2 54/63/2 55/62/2 56/61/2 57/60/2 58/59/2 59/58/2 60/57/2 61/56/2 62/55/2 63/54/2 

vt -0.857621 0.433071
f 29/3/1 28/134/1 64/116/1 32/115/1 

vt -0.857621 0.318881
vt -0.857621 0.297298
vt -0.828094 0.297298
vt -0.828094 0.318881
f 28/135/18 27/136/17 65/137/17 64/138/18 

vt -0.857621 0.0553327
vt -0.857621 0.0387158
vn 0.92388 0.382683 -0
vt -0.828094 0.0387158
vt -0.828094 0.0553327
f 27/139/17 26/140/19 66/141/19 65/142/17 

vt -0.857621 0.0337496
vt -0.828094 0.0337496
f 26/140/19 25/143/16 67/144/16 66/141/19 

vt -0.857621 -0.211251
vt -0.857621 -0.232834
vt -0.828094 -0.232834
vt -0.828094 -0.211251
f 25/145/16 24/146/15 68/147/15 67/148/16 

vt -0.857621 -0.462703
vt -0.857621 -0.484286
vt -0.828094 -0.484286
vt -0.828094 -0.462703
f 24/149/15 23/150/14 69/151/14 68/152/15 

vt -0.857621 -0.681887
vt -0.857621 -0.70347
vt -0.828094 -0.70347
vt -0.828094 -0.681887
f 23/153/14 22/154/13 70/155/13 69/156/14 

vt -0.857621 -0.853866
vt -0.857621 -0.875449
vn -6.57884e-016 1 -0
vt -0.828094 -0.875449
vt -0.828094 -0.853866
f 22/157/13 21/158/20 71/159/20 70/160/13 

vt 0.857621 0.966921
vt 0.857621 0.988504
vt 0.828094 0.988504
vt 0.828094 0.966921
f 21/161/20 20/162/12 72/163/12 71/164/20 

vt 0.857621 1.01335
vt 0.857621 1.03493
vt 0.828094 1.03493
vt 0.828094 1.01335
f 20/165/12 19/166/11 73/167/11 72/168/12 

vt 0.857621 0.989977
vt 0.857621 1.01156
vt 0.828094 1.01156
vt 0.828094 0.989977
f 19/169/11 18/170/10 74/171/10 73/172/11 

vt 0.857621 0.898408
vt 0.857621 0.919991
vt 0.828094 0.919991
vt 0.828094 0.898408
f 18/173/10 17/174/9 75/175/9 74/176/10 

vt 0.857621 0.744878
vt 0.857621 0.749844
vn -0.92388 0.382683 -0
vt 0.828094 0.749844
vt 0.828094 0.744878
f 17/177/9 16/178/21 76/179/21 75/180/9 

vt 0.857621 0.766461
vt 0.828094 0.766461
f 16/178/21 15/181/8 77/182/8 76/179/21 

vt 0.857621 0.539851
vt 0.857621 0.561434
vt 0.828094 0.561434
vt 0.828094 0.539851
f 15/183/8 14/184/7 78/185/7 77/186/8 

vn -1 0 -0
vt 0.828094 0.866142
vt 0.828094 0.433071
vt 0.857621 0.433071
f 13/39/22 79/187/22 78/188/22 14/189/22 

vt 1.01181 -0.828094
vn 3.07492e-017 1 -6.99695e-016
vt 1.01181 -0.857621
vt 1.79528 -0.857621
vt 1.79528 -0.818251
vt 1.75591 -0.818251
vt 1.75591 -0.778881
vt 1.0315 -0.778881
vt 1.0315 -0.828094
f 79/190/23 13/191/23 3/192/23 2/193/23 10/194/23 37/195/23 36/196/23 80/197/23 

vt -0.818251 0.0787402
vt -0.778881 0.0787402
f 37/114/1 10/2/1 9/198/1 38/199/1 

vt -1.75591 -0.818251
vt -0.102362 -0.818251
vt -0.102362 -0.778881
vt -1.75591 -0.778881
f 9/200/3 8/201/3 39/202/3 38/203/3 

vt 0.818251 0.0787402
vt 0.778881 0.866142
vt 0.778881 0.0787402
f 8/204/22 7/40/22 31/205/22 39/206/22 

vt 0.778881 0.433071
f 36/205/22 35/207/22 52/188/22 80/187/22 

