# Alias OBJ Model File
# Exported from SketchUp, (c) 2000-2012 Trimble Navigation Limited
# File units = millimeters

mtllib SlideHolderShortThin.mtl

g Mesh1 Model

usemtl FrontColor
v 0 0 -8
vt -0.314961 0
vn -1 0 -0
v 0 0 -3
vt -0.11811 0
v 0 2 -3
vt -0.11811 0.0787402
v 0 2 -8
vt -0.314961 0.0787402
f 1/1/1 2/2/1 3/3/1 4/4/1 

vt 0 0.314961
vn 0 -1 -0
v 5.5 -1.76248e-014 -84.5
vt -0.216535 3.32677
vt 0 0.11811
f 1/5/2 5/6/2 2/7/2

v 0 0 -92
vt 0 3.62205
f 6/8/2 5/6/2 1/5/2

v 55 0 -97
vt -2.16535 3.8189
f 6/8/2 7/9/2 5/6/2

v 0 0 -97
vt 0 3.8189
f 7/9/2 6/8/2 8/10/2

vt -3.8189 0
vt -3.62205 0
v 0 2 -92
vt -3.62205 0.0787402
v 0 2 -97
vt -3.8189 0.0787402
f 8/11/1 6/12/1 9/13/1 10/14/1 

vt 0 0
vn 0 0 -1
v -6.5 0 -92
vt 0.255906 0
v -6.5 2 -92
vt 0.255906 0.0787402
vt 0 0.0787402
f 6/15/3 11/16/3 12/17/3 9/18/3 

v -6.5 0 -8
vt 0.255906 0.314961
vt 0.255906 3.62205
f 6/8/2 13/19/2 11/20/2

f 13/19/2 6/8/2 1/5/2

vt -0.255906 0
vn 0 0 1
v -6.5 2 -8
vt -0.255906 0.0787402
f 13/21/4 1/15/4 4/18/4 14/22/4 

vn 0 1 -0
vt -0.255906 3.62205
vt -0.255906 0.314961
f 4/5/5 12/23/5 14/24/5

f 12/23/5 4/5/5 9/8/5

v 5.5 2 -15.5
vt 0.216535 0.610236
f 4/5/5 15/25/5 9/8/5

v 55 2 -3
vt 2.16535 0.11811
f 4/5/5 16/26/5 15/25/5

f 16/26/5 4/5/5 3/7/5

v 55 0 -3
vt 2.16535 0
vt 2.16535 0.0787402
f 2/15/4 17/27/4 16/28/4 3/18/4 

v 5.5 -1.76248e-014 -15.5
vt -0.216535 0.610236
vt -2.16535 0.11811
f 2/7/2 18/29/2 17/30/2

f 18/29/2 2/7/2 5/6/2

v 5.5 2 -84.5
vt 3.32677 0.0787402
vn 1 0 -0
vt 0.610236 0.0787402
vt 0.610236 -6.93889e-016
vt 3.32677 -6.93889e-016
f 19/31/6 15/32/6 18/33/6 5/34/6 

vt 0.216535 3.32677
f 19/35/5 10/10/5 15/25/5

v 55 2 -97
vt 2.16535 3.8189
f 10/10/5 19/35/5 20/36/5

v 49.5 2 -84.5
vt 1.94882 3.32677
f 20/36/5 19/35/5 21/37/5

vt 1.94882 0.0787402
vt 0.216535 0.0787402
vt 0.216535 -6.93889e-016
v 49.5 -1.76248e-014 -84.5
vt 1.94882 -6.93889e-016
f 21/38/4 19/39/4 5/40/4 22/41/4 

vt -1.94882 3.32677
f 5/6/2 7/9/2 22/42/2

v 49.5 -1.76248e-014 -15.5
vt -1.94882 0.610236
f 22/42/2 7/9/2 23/43/2

f 17/30/2 23/43/2 7/9/2

f 17/30/2 18/29/2 23/43/2

vt -0.216535 0.0787402
v 49.5 2 -15.5
vt -1.94882 0.0787402
vt -1.94882 -6.93889e-016
vt -0.216535 -6.93889e-016
f 15/44/3 24/45/3 23/46/3 18/47/3 

vt 1.94882 0.610236
f 15/25/5 16/26/5 24/48/5

f 24/48/5 16/26/5 21/37/5

f 20/36/5 21/37/5 16/26/5

v 55 2 -8
vt 2.16535 0.314961
f 20/36/5 16/26/5 25/49/5

vt 0.11811 0
v 55 0 -8
vt 0.314961 0
vt 0.314961 0.0787402
vt 0.11811 0.0787402
f 17/50/6 26/51/6 25/52/6 16/53/6 

v 55 0 -92
vt -2.16535 3.62205
vt -2.16535 0.314961
f 17/30/2 27/54/2 26/55/2

f 17/30/2 7/9/2 27/54/2

vt 3.62205 0
vt 3.8189 0
vt 3.8189 0.0787402
v 55 2 -92
vt 3.62205 0.0787402
f 27/56/6 7/57/6 20/58/6 28/59/6 

vt -2.16535 0
vt -2.16535 0.0787402
f 7/60/3 8/15/3 10/18/3 20/61/3 

vt 2.16535 3.62205
f 20/36/5 25/49/5 28/62/5

v 61.5 2 -8
vt 2.42126 0.314961
f 29/63/5 28/62/5 25/49/5

v 61.5 2 -92
vt 2.42126 3.62205
f 28/62/5 29/63/5 30/64/5

v 61.5 0 -8
v 61.5 0 -92
f 29/52/6 31/51/6 32/56/6 30/59/6 

vt 2.42126 0
vt 2.42126 0.0787402
f 26/27/4 31/65/4 29/66/4 25/28/4 

vt -2.42126 3.62205
vt -2.42126 0.314961
f 26/55/2 32/67/2 31/68/2

f 32/67/2 26/55/2 27/54/2

vt -2.42126 0
vt -2.42126 0.0787402
f 32/69/3 27/60/3 28/61/3 30/70/3 

vt -0.610236 0.0787402
vt -3.32677 0.0787402
vt -3.32677 -6.93889e-016
vt -0.610236 -6.93889e-016
f 24/71/1 21/72/1 22/73/1 23/74/1 

f 9/8/5 15/25/5 10/10/5

f 13/1/1 14/4/1 12/13/1 11/12/1 

