# Alias OBJ Model File
# Exported from SketchUp, (c) 2000-2012 Trimble Navigation Limited
# File units = millimeters

mtllib TomaszLensCap2.mtl

g Mesh1 Model

usemtl FrontColor
v -34.0141 0 11.8678
vt -1.33914 -0.467235
vn 0 1 -0
v -35.3909 0 -6.72925
vt -1.39334 0.264931
v -35.9267 0 2.65989
vt -1.41444 -0.10472
f 1/1/1 2/2/1 3/3/1

v -32.4434 0 -15.6598
vt -1.2773 0.616528
f 2/2/1 1/1/1 4/4/1

v -29.7835 0 20.2669
vt -1.17258 -0.797908
f 4/4/1 1/1/1 5/5/1

vt -0.185126 0
vn -0.94418 0 0.329431
vt 0.185126 0
vn -0.826744 0 0.562578
v -29.7835 1.5 20.2669
vt 0.185126 0.0590551
v -34.0141 1.5 11.8678
vt -0.185126 0.0590551
f 1/6/2 5/7/3 6/8/3 7/9/2 

v -23.5232 0 27.2848
vn -0.652968 0 0.757386
v -23.5232 1.5 27.2848
f 5/6/3 8/7/4 9/8/4 6/9/3 

v -27.2848 0 -23.5232
vt -1.07421 0.926109
vt -0.926109 -1.07421
f 10/10/1 5/5/1 8/11/1

f 4/4/1 5/5/1 10/10/1

vn -0.757386 0 -0.652968
vn -0.900579 0 -0.434693
v -32.4434 1.5 -15.6598
v -27.2848 1.5 -23.5232
f 10/6/5 4/7/6 11/8/6 12/9/5 

vn -0.982399 0 -0.186794
v -35.3909 1.5 -6.72925
f 4/6/6 2/7/7 13/8/7 11/9/6 

vn -0.997271 0 0.0738344
v -35.9267 1.5 2.65989
f 2/6/7 3/7/8 14/8/8 13/9/7 

f 3/6/8 1/7/2 7/8/2 14/9/8 

vn 1.40421e-033 1 -1.1489e-033
f 7/1/9 13/2/9 14/3/9

f 13/2/9 7/1/9 11/4/9

v -32.8391 1.5 -0.847037
vt -1.29288 0.0333479
f 11/4/9 7/1/9 15/12/9

v -31.9393 1.5 7.6812
vt -1.25745 -0.30241
f 7/1/9 16/13/9 15/12/9

f 16/13/9 7/1/9 6/5/9

v -28.863 1.5 15.686
vt -1.13634 -0.617558
f 16/13/9 6/5/9 17/14/9

f 17/14/9 6/5/9 9/11/9

v -23.8197 1.5 22.6218
vt -0.937783 -0.890622
f 17/14/9 9/11/9 18/15/9

v -17.1531 1.5 28.016
vt -0.675319 -1.10299
f 18/15/9 9/11/9 19/16/9

v -15.6598 1.5 32.4434
vt -0.616528 -1.2773
f 19/16/9 9/11/9 20/17/9

v -15.6598 0 32.4434
vn -0.434693 0 0.900579
f 8/6/4 21/7/10 20/8/10 9/9/4 

v -19.7531 0 3.97964
vt -0.777681 -0.156679
f 22/18/1 8/11/1 21/17/1

v -20.11 0 -1.26844
vt -0.791734 0.0499384
f 23/19/1 8/11/1 22/18/1

v -20.2669 0 -29.7835
vt -0.797908 1.17258
f 24/20/1 8/11/1 23/19/1

f 10/10/1 8/11/1 24/20/1

vn -0.562578 0 -0.826744
v -20.2669 1.5 -29.7835
f 24/6/11 10/7/5 12/8/5 25/9/11 

v -22.6218 1.5 -23.8197
vt -0.890622 0.937783
f 12/10/9 26/21/9 25/20/9

v -28.016 1.5 -17.1531
vt -1.10299 0.675319
f 12/10/9 27/22/9 26/21/9

v -31.5009 1.5 -9.31755
vt -1.24019 0.366833
f 12/10/9 28/23/9 27/22/9

f 11/4/9 28/23/9 12/10/9

f 11/4/9 15/12/9 28/23/9

v -31.5009 3 -9.31755
vt -0.16881 0.11811
vn -0.958931 0 -0.283639
vt -0.16881 0.0590551
vt 0.16881 0.0590551
vn -0.999668 0 -0.025785
v -32.8391 3 -0.847037
vt 0.16881 0.11811
f 29/24/12 28/25/12 15/26/13 30/27/13 

v -28.016 3 -17.1531
vn -0.852845 0 -0.522164
f 31/24/14 27/25/14 28/26/12 29/27/12 

v -22.6218 3 -23.8197
vn -0.688639 0 -0.725104
f 32/24/15 26/25/15 27/26/14 31/27/14 

v -15.686 3 -28.863
vn -0.477503 0 -0.87863
v -15.686 1.5 -28.863
f 33/24/16 34/25/16 26/26/15 32/27/15 

v -7.6812 3 -31.9393
vn -0.233827 0 -0.972278
v -7.6812 1.5 -31.9393
f 35/24/17 36/25/17 34/26/16 33/27/16 

v 0.847037 3 -32.8391
vn 0.025785 0 -0.999668
v 0.847037 1.5 -32.8391
f 37/24/18 38/25/18 36/26/17 35/27/17 

v 9.31755 3 -31.5009
vn 0.283639 0 -0.958931
v 9.31755 1.5 -31.5009
f 39/24/19 40/25/19 38/26/18 37/27/18 

v 17.1531 3 -28.016
vn 0.522164 0 -0.852845
v 17.1531 1.5 -28.016
f 41/24/20 42/25/20 40/26/19 39/27/19 

v 23.8197 3 -22.6218
vn 0.725104 0 -0.688639
v 23.8197 1.5 -22.6218
f 43/24/21 44/25/21 42/26/20 41/27/20 

v 28.863 3 -15.686
vn 0.87863 0 -0.477503
v 28.863 1.5 -15.686
f 45/24/22 46/25/22 44/26/21 43/27/21 

v 31.9393 3 -7.6812
vn 0.972278 0 -0.233827
v 31.9393 1.5 -7.6812
f 47/24/23 48/25/23 46/26/22 45/27/22 

v 32.8391 3 0.847037
vn 0.999668 0 0.025785
v 32.8391 1.5 0.847037
f 49/24/24 50/25/24 48/26/23 47/27/23 

v 31.5009 3 9.31755
vn 0.958931 0 0.283639
v 31.5009 1.5 9.31755
f 51/24/25 52/25/25 50/26/24 49/27/24 

v 28.016 3 17.1531
vn 0.852845 0 0.522164
v 28.016 1.5 17.1531
f 53/24/26 54/25/26 52/26/25 51/27/25 

v 22.6218 3 23.8197
vn 0.688639 0 0.725104
v 22.6218 1.5 23.8197
f 55/24/27 56/25/27 54/26/26 53/27/26 

v 15.686 3 28.863
vn 0.477503 0 0.87863
v 15.686 1.5 28.863
f 57/24/28 58/25/28 56/26/27 55/27/27 

v 7.6812 3 31.9393
vn 0.233827 0 0.972278
v 7.6812 1.5 31.9393
f 59/24/29 60/25/29 58/26/28 57/27/28 

v -0.847037 3 32.8391
vn -0.025785 0 0.999668
v -0.847037 1.5 32.8391
f 61/24/30 62/25/30 60/26/29 59/27/29 

v -9.31755 3 31.5009
vn -0.283639 0 0.958931
v -9.31755 1.5 31.5009
f 63/24/31 64/25/31 62/26/30 61/27/30 

v -17.1531 3 28.016
vn -0.522164 0 0.852845
f 65/24/32 19/25/32 64/26/31 63/27/31 

v -23.8197 3 22.6218
vn -0.725104 0 0.688639
f 66/24/33 18/25/33 19/26/32 65/27/32 

v -28.863 3 15.686
vn -0.87863 0 0.477503
f 67/24/34 17/25/34 18/26/33 66/27/33 

v -31.9393 3 7.6812
vn -0.972278 0 0.233827
f 68/24/35 16/25/35 17/26/34 67/27/34 

f 30/24/13 15/25/13 16/26/35 68/27/35 

f 68/13/1 29/23/1 30/12/1

f 29/23/1 68/13/1 67/14/1

f 29/23/1 67/14/1 31/22/1

v -26.5 3 -3.24531e-015
vt -1.04331 1.27768e-016
f 31/22/1 67/14/1 69/28/1

f 69/28/1 67/14/1 66/15/1

v -25.597 3 6.8587
vt -1.00776 -0.270028
f 69/28/1 66/15/1 70/29/1

v -22.9497 3 13.25
vt -0.90353 -0.521654
f 70/29/1 66/15/1 71/30/1

f 71/30/1 66/15/1 65/16/1

v -18.7383 3 18.7383
vt -0.73773 -0.73773
f 71/30/1 65/16/1 72/31/1

v -13.25 3 22.9497
vt -0.521654 -0.90353
f 72/31/1 65/16/1 73/32/1

vt -0.366833 -1.24019
f 73/32/1 65/16/1 63/33/1

v -6.8587 3 25.597
vt -0.270028 -1.00776
f 73/32/1 63/33/1 74/34/1

vt -0.0333479 -1.29288
f 74/34/1 63/33/1 61/35/1

v -4.86797e-015 3 26.5
vt -1.91652e-016 -1.04331
f 74/34/1 61/35/1 75/36/1

vt 0.30241 -1.25745
f 75/36/1 61/35/1 59/37/1

v 6.8587 3 25.597
vt 0.270028 -1.00776
f 75/36/1 59/37/1 76/38/1

v 13.25 3 22.9497
vt 0.521654 -0.90353
f 76/38/1 59/37/1 77/39/1

vt 0.617558 -1.13634
f 77/39/1 59/37/1 57/40/1

v 18.7383 3 18.7383
vt 0.73773 -0.73773
f 77/39/1 57/40/1 78/41/1

vt 0.890622 -0.937783
f 78/41/1 57/40/1 55/42/1

v 22.9497 3 13.25
vt 0.90353 -0.521654
f 78/41/1 55/42/1 79/43/1

vt 1.10299 -0.675319
f 79/43/1 55/42/1 53/44/1

v 25.597 3 6.8587
vt 1.00776 -0.270028
f 79/43/1 53/44/1 80/45/1

v 26.5 3 -0
vt 1.04331 0
f 80/45/1 53/44/1 81/46/1

vt 1.13634 0.617558
f 45/47/1 81/46/1 53/44/1

v 25.597 3 -6.8587
vt 1.00776 0.270028
f 45/47/1 82/48/1 81/46/1

vt 0.937783 0.890622
f 43/49/1 82/48/1 45/47/1

v 22.9497 3 -13.25
vt 0.90353 0.521654
f 43/49/1 83/50/1 82/48/1

v 18.7383 3 -18.7383
vt 0.73773 0.73773
f 43/49/1 84/51/1 83/50/1

vt 0.675319 1.10299
f 41/52/1 84/51/1 43/49/1

v 13.25 3 -22.9497
vt 0.521654 0.90353
f 41/52/1 85/53/1 84/51/1

vt 0.366833 1.24019
f 39/54/1 85/53/1 41/52/1

v 6.8587 3 -25.597
vt 0.270028 1.00776
f 39/54/1 86/55/1 85/53/1

vt 0.0333479 1.29288
f 37/56/1 86/55/1 39/54/1

v 1.62266e-015 3 -26.5
vt 6.38841e-017 1.04331
f 37/56/1 87/57/1 86/55/1

v -6.8587 3 -25.597
vt -0.270028 1.00776
f 37/56/1 88/58/1 87/57/1

vt -0.30241 1.25745
f 35/59/1 88/58/1 37/56/1

v -13.25 3 -22.9497
vt -0.521654 0.90353
f 35/59/1 89/60/1 88/58/1

vt -0.617558 1.13634
f 33/61/1 89/60/1 35/59/1

v -18.7383 3 -18.7383
vt -0.73773 0.73773
f 33/61/1 90/62/1 89/60/1

f 32/21/1 90/62/1 33/61/1

v -22.9497 3 -13.25
vt -0.90353 0.521654
f 32/21/1 91/63/1 90/62/1

v -25.597 3 -6.8587
vt -1.00776 0.270028
f 32/21/1 92/64/1 91/63/1

f 31/22/1 92/64/1 32/21/1

f 92/64/1 31/22/1 69/28/1

vt -0.136179 0.11811
vn 1 -1.18609e-018 3.35941e-016
v -26.5 1 -3.24531e-015
vt -0.136179 0.0393701
v -25.597 1 -6.8587
vt 0.136179 0.0393701
vn 0.965926 -4.31684e-018 0.258819
vt 0.136179 0.11811
f 69/65/36 93/66/36 94/67/37 92/68/37 

vn 0.965926 6.62261e-018 -0.258819
v -25.597 1 6.8587
f 70/65/38 95/66/38 93/67/36 69/68/36 

vn 0.866025 3.11691e-017 -0.5
v -22.9497 1 13.25
f 71/65/39 96/66/39 95/67/38 70/68/38 

vn 0.707107 2.39883e-017 -0.707107
v -18.7383 1 18.7383
f 72/65/40 97/66/40 96/67/39 71/68/39 

vn 0.5 4.98927e-018 -0.866025
v -13.25 1 22.9497
f 73/65/41 98/66/41 97/67/40 72/68/40 

vn 0.258819 9.29476e-018 -0.965926
v -6.8587 1 25.597
f 74/65/42 99/66/42 98/67/41 73/68/41 

vn 1.81968e-016 6.70723e-018 -1
v -4.86797e-015 1 26.5
f 75/65/43 100/66/43 99/67/42 74/68/42 

vn -0.258819 -7.90204e-019 -0.965926
v 6.8587 1 25.597
f 76/65/44 101/66/44 100/67/43 75/68/43 

vn -0.5 -2.7763e-018 -0.866025
v 13.25 1 22.9497
f 77/65/45 102/66/45 101/67/44 76/68/44 

vn -0.707107 5.01736e-018 -0.707107
v 18.7383 1 18.7383
f 78/65/46 103/66/46 102/67/45 77/68/45 

vn -0.866025 1.24837e-017 -0.5
v 22.9497 1 13.25
f 79/65/47 104/66/47 103/67/46 78/68/46 

vn -0.965926 1.12009e-017 -0.258819
v 25.597 1 6.8587
f 80/65/48 105/66/48 104/67/47 79/68/47 

vn -1 6.70723e-018 -2.09963e-016
v 26.5 1 -0
f 81/65/49 106/66/49 105/67/48 80/68/48 

vn -0.965926 1.46602e-017 0.258819
v 25.597 1 -6.8587
f 82/65/50 107/66/50 106/67/49 81/68/49 

vn -0.866025 -1.13793e-018 0.5
v 22.9497 1 -13.25
f 83/65/51 108/66/51 107/67/50 82/68/50 

vn -0.707107 -1.84069e-017 0.707107
v 18.7383 1 -18.7383
f 84/65/52 109/66/52 108/67/51 83/68/51 

vn -0.5 -7.39242e-018 0.866025
v 13.25 1 -22.9497
f 85/65/53 110/66/53 109/67/52 84/68/52 

vn -0.258819 -4.98569e-020 0.965926
v 6.8587 1 -25.597
f 86/65/54 111/66/54 110/67/53 85/68/53 

vn -3.49938e-016 2.76057e-018 1
v 1.62266e-015 1 -26.5
f 87/65/55 112/66/55 111/67/54 86/68/54 

vn 0.258819 9.79416e-018 0.965926
v -6.8587 1 -25.597
f 88/65/56 113/66/56 112/67/55 87/68/55 

vn 0.5 2.35796e-017 0.866025
v -13.25 1 -22.9497
f 89/65/57 114/66/57 113/67/56 88/68/56 

vn 0.707107 3.17963e-017 0.707107
v -18.7383 1 -18.7383
f 90/65/58 115/66/58 114/67/57 89/68/57 

vn 0.866025 1.29068e-017 0.5
v -22.9497 1 -13.25
f 91/65/59 116/66/59 115/67/58 90/68/58 

f 92/65/37 94/66/37 116/67/59 91/68/59 

f 94/64/1 96/30/1 116/63/1

f 94/64/1 95/29/1 96/30/1

f 95/29/1 94/64/1 93/28/1

f 116/63/1 96/30/1 97/31/1

v -19.7531 1 3.97964
f 116/63/1 97/31/1 117/18/1

v -18.05 1 8.95652
vt -0.710631 -0.352619
f 117/18/1 97/31/1 118/69/1

f 118/69/1 97/31/1 98/32/1

v -15.1169 1 13.323
vt -0.595152 -0.524528
f 118/69/1 98/32/1 119/70/1

v -11.1535 1 16.7816
vt -0.439115 -0.660692
f 119/70/1 98/32/1 120/71/1

f 120/71/1 98/32/1 99/34/1

v -6.43008 1 19.0965
vt -0.253153 -0.751831
f 120/71/1 99/34/1 121/72/1

f 121/72/1 99/34/1 100/36/1

v -1.26844 1 20.11
vt -0.0499384 -0.791734
f 121/72/1 100/36/1 122/73/1

v 3.97964 1 19.7531
vt 0.156679 -0.777681
f 122/73/1 100/36/1 123/74/1

f 123/74/1 100/36/1 101/38/1

v 8.95652 1 18.05
vt 0.352619 -0.710631
f 123/74/1 101/38/1 124/75/1

f 124/75/1 101/38/1 102/39/1

v 13.323 1 15.1169
vt 0.524528 -0.595152
f 124/75/1 102/39/1 125/76/1

f 125/76/1 102/39/1 103/41/1

v 16.7816 1 11.1535
vt 0.660692 -0.439115
f 125/76/1 103/41/1 126/77/1

v 19.0965 1 6.43008
vt 0.751831 -0.253153
f 126/77/1 103/41/1 127/78/1

f 127/78/1 103/41/1 104/43/1

v 20.11 1 1.26844
vt 0.791734 -0.0499384
f 127/78/1 104/43/1 128/79/1

f 108/50/1 128/79/1 104/43/1

v 19.7531 1 -3.97964
vt 0.777681 0.156679
f 108/50/1 129/80/1 128/79/1

f 109/51/1 129/80/1 108/50/1

v 18.05 1 -8.95652
vt 0.710631 0.352619
f 109/51/1 130/81/1 129/80/1

v 15.1169 1 -13.323
vt 0.595152 0.524528
f 109/51/1 131/82/1 130/81/1

f 110/53/1 131/82/1 109/51/1

v 11.1535 1 -16.7816
vt 0.439115 0.660692
f 110/53/1 132/83/1 131/82/1

f 111/55/1 132/83/1 110/53/1

v 6.43008 1 -19.0965
vt 0.253153 0.751831
f 111/55/1 133/84/1 132/83/1

v 1.26844 1 -20.11
vt 0.0499384 0.791734
f 111/55/1 134/85/1 133/84/1

f 112/57/1 134/85/1 111/55/1

v -3.97964 1 -19.7531
vt -0.156679 0.777681
f 112/57/1 135/86/1 134/85/1

f 113/58/1 135/86/1 112/57/1

v -8.95652 1 -18.05
vt -0.352619 0.710631
f 113/58/1 136/87/1 135/86/1

f 114/60/1 136/87/1 113/58/1

v -13.323 1 -15.1169
vt -0.524528 0.595152
f 114/60/1 137/88/1 136/87/1

v -16.7816 1 -11.1535
vt -0.660692 0.439115
f 114/60/1 138/89/1 137/88/1

f 115/62/1 138/89/1 114/60/1

v -19.0965 1 -6.43008
vt -0.751831 0.253153
f 115/62/1 139/90/1 138/89/1

v -20.11 1 -1.26844
f 115/62/1 140/19/1 139/90/1

f 140/19/1 115/62/1 116/63/1

f 116/63/1 117/18/1 140/19/1

vt -0.103547 0
vn 0.980303 0 -0.197501
vt 0.103547 0
vn 0.998017 0 0.0629497
vt 0.103547 0.0393701
vt -0.103547 0.0393701
f 22/91/60 23/92/61 140/93/61 117/94/60 

v -19.0965 0 -6.43008
vn 0.947718 0 0.31911
f 23/91/61 141/92/62 139/93/62 140/94/61 

f 141/90/1 24/20/1 23/19/1

v -11.8678 0 -34.0141
vt -0.467235 1.33914
f 24/20/1 141/90/1 142/95/1

v -16.7816 0 -11.1535
f 142/95/1 141/90/1 143/89/1

vn 0.832833 0 0.553524
f 141/91/62 143/92/63 138/93/63 139/94/62 

v -13.323 0 -15.1169
vn 0.661192 0 0.750217
f 143/91/63 144/92/64 137/93/64 138/94/63 

f 142/95/1 143/89/1 144/88/1

v -8.95652 0 -18.05
f 142/95/1 144/88/1 145/87/1

vn 0.444492 0 0.895783
f 144/91/64 145/92/65 136/93/65 137/94/64 

v -3.97964 0 -19.7531
vn 0.197501 0 0.980303
f 145/91/65 146/92/66 135/93/66 136/94/65 

v -2.65989 0 -35.9267
vt -0.10472 1.41444
f 147/96/1 145/87/1 146/86/1

f 142/95/1 145/87/1 147/96/1

vn -0.0738344 0 -0.997271
vn -0.329431 0 -0.94418
v -11.8678 1.5 -34.0141
v -2.65989 1.5 -35.9267
f 147/6/67 142/7/68 148/8/68 149/9/67 

f 142/6/68 24/7/11 25/8/11 148/9/68 

f 25/20/9 34/61/9 148/95/9

f 25/20/9 26/21/9 34/61/9

f 148/95/9 34/61/9 36/59/9

f 148/95/9 36/59/9 149/96/9

f 149/96/9 36/59/9 38/56/9

v 6.72925 1.5 -35.3909
vt 0.264931 1.39334
f 149/96/9 38/56/9 150/97/9

f 150/97/9 38/56/9 40/54/9

v 15.6598 1.5 -32.4434
vt 0.616528 1.2773
f 150/97/9 40/54/9 151/98/9

f 151/98/9 40/54/9 42/52/9

v 23.5232 1.5 -27.2848
vt 0.926109 1.07421
f 151/98/9 42/52/9 152/99/9

f 152/99/9 42/52/9 44/49/9

v 29.7835 1.5 -20.2669
vt 1.17258 0.797908
f 152/99/9 44/49/9 153/100/9

f 153/100/9 44/49/9 46/47/9

vt 1.25745 0.30241
f 153/100/9 46/47/9 48/101/9

v 34.0141 1.5 -11.8678
vt 1.33914 0.467235
f 153/100/9 48/101/9 154/102/9

vt 1.29288 -0.0333479
f 154/102/9 48/101/9 50/103/9

v 35.3909 1.5 6.72925
vt 1.39334 -0.264931
f 50/103/9 155/104/9 154/102/9

v 32.4434 1.5 15.6598
vt 1.2773 -0.616528
f 50/103/9 156/105/9 155/104/9

vt 1.24019 -0.366833
f 52/106/9 156/105/9 50/103/9

f 54/44/9 156/105/9 52/106/9

v 27.2848 1.5 23.5232
vt 1.07421 -0.926109
f 54/44/9 157/107/9 156/105/9

f 56/42/9 157/107/9 54/44/9

v 20.2669 1.5 29.7835
vt 0.797908 -1.17258
f 56/42/9 158/108/9 157/107/9

f 58/40/9 158/108/9 56/42/9

v 11.8678 1.5 34.0141
vt 0.467235 -1.33914
f 58/40/9 159/109/9 158/108/9

f 60/37/9 159/109/9 58/40/9

v 2.65989 1.5 35.9267
vt 0.10472 -1.41444
f 60/37/9 160/110/9 159/109/9

f 62/35/9 160/110/9 60/37/9

v -6.72925 1.5 35.3909
vt -0.264931 -1.39334
f 62/35/9 161/111/9 160/110/9

f 64/33/9 161/111/9 62/35/9

f 64/33/9 20/17/9 161/111/9

f 19/16/9 20/17/9 64/33/9

v -6.72925 0 35.3909
vn -0.186794 0 0.982399
f 21/6/10 162/7/69 161/8/69 20/9/10 

v -15.1169 0 13.323
f 163/70/1 21/17/1 162/111/1

v -18.05 0 8.95652
f 164/69/1 21/17/1 163/70/1

f 22/18/1 21/17/1 164/69/1

vn 0.895783 0 -0.444492
f 164/91/70 22/92/60 117/93/60 118/94/70 

vn 0.750217 0 -0.661192
f 163/91/71 164/92/70 118/93/70 119/94/71 

v -11.1535 0 16.7816
vn 0.553524 0 -0.832833
f 165/91/72 163/92/71 119/93/71 120/94/72 

f 163/70/1 162/111/1 165/71/1

v -6.43008 0 19.0965
f 165/71/1 162/111/1 166/72/1

v 2.65989 0 35.9267
f 166/72/1 162/111/1 167/110/1

vn 0.0738344 0 0.997271
f 162/6/69 167/7/73 160/8/73 161/9/69 

v 11.8678 0 34.0141
vn 0.329431 0 0.94418
f 167/6/73 168/7/74 159/8/74 160/9/73 

v 3.97964 0 19.7531
f 169/74/1 167/110/1 168/109/1

v -1.26844 0 20.11
f 170/73/1 167/110/1 169/74/1

f 166/72/1 167/110/1 170/73/1

vn 0.0629497 0 -0.998017
vn 0.31911 0 -0.947718
f 170/91/75 166/92/76 121/93/76 122/94/75 

f 166/91/76 165/92/72 120/93/72 121/94/76 

vn -0.197501 0 -0.980303
f 169/91/77 170/92/75 122/93/75 123/94/77 

v 8.95652 0 18.05
vn -0.444492 0 -0.895783
f 171/91/78 169/92/77 123/93/77 124/94/78 

f 169/74/1 168/109/1 171/75/1

v 13.323 0 15.1169
f 171/75/1 168/109/1 172/76/1

v 20.2669 0 29.7835
f 172/76/1 168/109/1 173/108/1

vn 0.562578 0 0.826744
f 168/6/74 173/7/79 158/8/79 159/9/74 

v 27.2848 0 23.5232
vn 0.757386 0 0.652968
f 173/6/79 174/7/80 157/8/80 158/9/79 

v 23.5232 0 -27.2848
f 175/99/1 173/108/1 174/107/1

v 20.11 0 1.26844
f 175/99/1 176/79/1 173/108/1

v 19.7531 0 -3.97964
f 175/99/1 177/80/1 176/79/1

v 18.05 0 -8.95652
f 175/99/1 178/81/1 177/80/1

v 15.6598 0 -32.4434
f 179/98/1 178/81/1 175/99/1

v 15.1169 0 -13.323
f 179/98/1 180/82/1 178/81/1

v 11.1535 0 -16.7816
f 179/98/1 181/83/1 180/82/1

v 6.72925 0 -35.3909
f 182/97/1 181/83/1 179/98/1

v 6.43008 0 -19.0965
f 182/97/1 183/84/1 181/83/1

v 1.26844 0 -20.11
f 182/97/1 184/85/1 183/84/1

f 147/96/1 184/85/1 182/97/1

f 147/96/1 146/86/1 184/85/1

vn -0.0629497 0 0.998017
f 146/91/66 184/92/81 134/93/81 135/94/66 

vn -0.31911 0 0.947718
f 184/91/81 183/92/82 133/93/82 134/94/81 

vn -0.553524 0 0.832833
f 183/91/82 181/92/83 132/93/83 133/94/82 

vn -0.750217 0 0.661192
f 181/91/83 180/92/84 131/93/84 132/94/83 

vn -0.895783 0 0.444492
f 180/91/84 178/92/85 130/93/85 131/94/84 

vn -0.980303 0 0.197501
f 178/91/85 177/92/86 129/93/86 130/94/85 

vn -0.998017 0 -0.0629497
f 177/91/86 176/92/87 128/93/87 129/94/86 

v 19.0965 0 6.43008
vn -0.947718 0 -0.31911
f 176/91/87 185/92/88 127/93/88 128/94/87 

f 185/78/1 173/108/1 176/79/1

v 16.7816 0 11.1535
f 186/77/1 173/108/1 185/78/1

f 172/76/1 173/108/1 186/77/1

vn -0.832833 0 -0.553524
vn -0.661192 0 -0.750217
f 186/91/89 172/92/90 125/93/90 126/94/89 

f 172/91/90 171/92/78 124/93/78 125/94/90 

f 185/91/88 186/92/89 126/93/89 127/94/88 

vn 0.186794 0 -0.982399
f 182/6/91 147/7/67 149/8/67 150/9/91 

vn 0.434693 0 -0.900579
f 179/6/92 182/7/91 150/8/91 151/9/92 

vn 0.652968 0 -0.757386
f 175/6/93 179/7/92 151/8/92 152/9/93 

v 29.7835 0 -20.2669
vn 0.826744 0 -0.562578
f 187/6/94 175/7/93 152/8/93 153/9/94 

f 175/99/1 174/107/1 187/100/1

v 32.4434 0 15.6598
f 187/100/1 174/107/1 188/105/1

vn 0.900579 0 0.434693
f 174/6/80 188/7/95 156/8/95 157/9/80 

v 35.3909 0 6.72925
vn 0.982399 0 0.186794
f 188/6/95 189/7/96 155/8/96 156/9/95 

v 34.0141 0 -11.8678
f 190/102/1 188/105/1 189/104/1

f 187/100/1 188/105/1 190/102/1

vn 0.94418 0 -0.329431
f 190/6/97 187/7/94 153/8/94 154/9/97 

v 35.9267 0 -2.65989
vn 0.997271 0 -0.0738344
v 35.9267 1.5 -2.65989
f 191/6/98 190/7/97 154/8/97 192/9/98 

vt 1.41444 0.10472
f 190/102/1 189/104/1 191/112/1

f 189/6/96 191/7/98 192/8/98 155/9/96 

f 154/102/9 155/104/9 192/112/9

f 108/50/1 104/43/1 105/45/1

f 108/50/1 105/45/1 107/48/1

f 107/48/1 105/45/1 106/46/1

f 45/47/1 53/44/1 51/106/1

f 45/47/1 51/106/1 47/101/1

f 47/101/1 51/106/1 49/103/1

