# Alias OBJ Model File
# Exported from SketchUp, (c) 2000-2012 Trimble Navigation Limited
# File units = millimeters

mtllib TransferRing2b.mtl

g Mesh1 Model

usemtl FrontColor
v 41.255 6 34.357
vt 1.62421 -1.35264
vn 0 1 -0
v 41.255 6 20.3172
vt 1.62421 -0.799889
v 36.7319 6 20.1005
vt 1.44614 -0.791358
v 31.583 6 19.1701
vt 1.24343 -0.754728
v 26.5996 6 17.5756
vt 1.04723 -0.691952
v 21.867 6 15.3443
vt 0.860906 -0.604105
v 17.4661 6 12.5143
vt 0.687643 -0.492689
v 13.4723 6 9.13411
vt 0.530405 -0.359611
v 9.95381 6 5.26155
vt 0.391882 -0.207147
v 6.97091 6 0.962856
vt 0.274445 -0.0379077
v 4.57461 6 -3.6884
vt 0.180103 0.145213
v 2.80593 6 -8.61265
vt 0.11047 0.339081
v 1.69513 6 -13.7256
vt 0.0667373 0.540379
v 1.2612 6 -18.9399
vt 0.0496537 0.745664
v 1.51158 6 -24.1661
vt 0.0595112 0.951422
v 2.44199 6 -29.315
vt 0.0961412 1.15413
v 4.03649 6 -34.2983
vt 0.158917 1.35033
v 6.26781 6 -39.031
vt 0.246764 1.53665
v 6.64853 6 -39.623
vt 0.261753 1.55996
v -5.51035 6 -46.643
vt -0.216943 1.83634
v -8.63447 6 -40.3079
vt -0.33994 1.58692
v -10.905 6 -33.6192
vt -0.42933 1.32359
v -12.283 6 -26.6914
vt -0.483583 1.05084
v -12.745 6 -19.643
vt -0.501771 0.773345
v -12.283 6 -12.5945
vt -0.483583 0.495848
v -10.905 6 -5.66672
vt -0.42933 0.223099
v -8.63447 6 1.02195
vt -0.33994 -0.0402344
v -5.51035 6 7.35705
vt -0.216943 -0.289648
v -1.58606 6 13.2302
vt -0.0624432 -0.520873
v 3.07126 6 18.5408
vt 0.120916 -0.729953
v 8.38191 6 23.1981
vt 0.329996 -0.913312
v 14.255 6 27.1224
vt 0.561221 -1.06781
v 20.5901 6 30.2465
vt 0.810635 -1.19081
v 27.2788 6 32.517
vt 1.07397 -1.2802
v 34.2066 6 33.8951
vt 1.34672 -1.33445
f 1/1/1 2/2/1 3/3/1 4/4/1 5/5/1 6/6/1 7/7/1 8/8/1 9/9/1 10/10/1 11/11/1 12/12/1 13/13/1 14/14/1 15/15/1 16/16/1 17/17/1 18/18/1 19/19/1 20/20/1 21/21/1 22/22/1 23/23/1 24/24/1 25/25/1 26/26/1 27/27/1 28/28/1 29/29/1 30/30/1 31/31/1 32/32/1 33/33/1 34/34/1 35/35/1 

vt -0.799889 0.23622
vn 1 0 -0
vt -1.35264 0.23622
v 41.255 0 34.357
vt -1.35264 0
v 41.255 0 20.3172
vt -0.799889 0
f 2/36/2 1/37/2 36/38/2 37/39/2 

vt 1.7092 0.23622
vn -0.0654031 0 0.997859
vt 1.43111 0.23622
v 34.2066 0 33.8951
vt 1.43111 0
vt 1.7092 0
f 1/40/3 35/41/3 38/42/3 36/43/3 

vt 1.58118 0.23622
vn -0.19509 0 0.980785
vt 1.30309 0.23622
v 27.2788 0 32.517
vt 1.30309 0
vt 1.58118 0
f 35/44/4 34/45/4 39/46/4 38/47/4 

vt 1.42848 0.23622
vn -0.321439 0 0.94693
vt 1.15039 0.23622
v 20.5901 0 30.2465
vt 1.15039 0
vt 1.42848 0
f 34/48/5 33/49/5 40/50/5 39/51/5 

vt 1.25372 0.23622
vn -0.442289 0 0.896873
vt 0.975625 0.23622
v 14.255 0 27.1224
vt 0.975625 0
vt 1.25372 0
f 33/52/6 32/53/6 41/54/6 40/55/6 

vt 1.05988 0.23622
vn -0.55557 0 0.83147
vt 0.781791 0.23622
v 8.38191 0 23.1981
vt 0.781791 0
vt 1.05988 0
f 32/56/7 31/57/7 42/58/7 41/59/7 

vt 0.850293 0.23622
vn -0.659346 0 0.75184
vt 0.572201 0.23622
v 3.07126 0 18.5408
vt 0.572201 0
vt 0.850293 0
f 31/60/8 30/61/8 43/62/8 42/63/8 

vt 0.628533 0.23622
vn -0.75184 0 0.659346
vt 0.350441 0.23622
v -1.58606 0 13.2302
vt 0.350441 0
vt 0.628533 0
f 30/64/9 29/65/9 44/66/9 43/67/9 

vt 0.398398 0.23622
vn -0.83147 0 0.55557
vt 0.120306 0.23622
v -5.51035 0 7.35705
vt 0.120306 0
vt 0.398398 0
f 29/68/10 28/69/10 45/70/10 44/71/10 

vt 0.163826 0.23622
vn -0.896873 0 0.442289
vt -0.114266 0.23622
v -8.63447 0 1.02195
vt -0.114266 0
vt 0.163826 0
f 28/72/11 27/73/11 46/74/11 45/75/11 

vt -0.0711709 0.23622
vn -0.94693 0 0.321439
vt -0.349263 0.23622
v -10.905 0 -5.66672
vt -0.349263 0
vt -0.0711709 0
f 27/76/12 26/77/12 47/78/12 46/79/12 

vt -0.302571 0.23622
vn -0.980785 0 0.19509
vt -0.580663 0.23622
v -12.283 0 -12.5945
vt -0.580663 0
vt -0.302571 0
f 26/80/13 25/81/13 48/82/13 47/83/13 

vt -0.526414 0.23622
vn -0.997859 0 0.0654031
vt -0.804506 0.23622
v -12.745 0 -19.643
vt -0.804506 0
vt -0.526414 0
f 25/84/14 24/85/14 49/86/14 48/87/14 

vt -0.738871 0.23622
vn -0.997859 0 -0.0654031
vt -1.01696 0.23622
v -12.283 0 -26.6914
vt -1.01696 0
vt -0.738871 0
f 24/88/15 23/89/15 50/90/15 49/91/15 

vt -0.936307 0.23622
vn -0.980785 0 -0.19509
vt -1.2144 0.23622
v -10.905 0 -33.6192
vt -1.2144 0
vt -0.936307 0
f 23/92/16 22/93/16 51/94/16 50/95/16 

vt -1.11534 0.23622
vn -0.94693 0 -0.321439
vt -1.39344 0.23622
v -8.63447 0 -40.3079
vt -1.39344 0
vt -1.11534 0
f 22/96/17 21/97/17 52/98/17 51/99/17 

vt -1.27292 0.23622
vn -0.896873 0 -0.442289
vt -1.55101 0.23622
v -5.51035 0 -46.643
vt -1.55101 0
vt -1.27292 0
f 21/100/18 20/101/18 53/102/18 52/103/18 

vt 1.10605 0.23622
vn 0.5 0 -0.866025
vt 0.553296 0.23622
v 6.64853 0 -39.623
vt 0.553296 0
vt 1.10605 0
f 20/104/19 19/105/19 54/106/19 53/107/19 

vt 1.45367 0.23622
vn 0.841107 0 0.540869
vt 1.42596 0.23622
v 6.26781 0 -39.031
vt 1.42596 0
vt 1.45367 0
f 19/108/20 18/109/20 55/110/20 54/111/20 

vt 1.49515 0.23622
vn 0.904508 0 0.426456
vt 1.28915 0.23622
v 4.03649 0 -34.2983
vt 1.28915 0
vt 1.49515 0
f 18/112/21 17/113/21 56/114/21 55/115/21 

vt 1.33453 0.23622
vn 0.952434 0 0.304745
vt 1.12853 0.23622
v 2.44199 0 -29.315
vt 1.12853 0
vt 1.33453 0
f 17/116/22 16/117/22 57/118/22 56/119/22 

vt 1.15284 0.23622
vn 0.984063 0 0.177821
vt 0.946841 0.23622
v 1.51158 0 -24.1661
vt 0.946841 0
vt 1.15284 0
f 16/120/23 15/121/23 58/122/23 57/123/23 

vt 0.95318 0.23622
vn 0.998854 0 0.0478533
vt 0.747186 0.23622
v 1.2612 0 -18.9399
vt 0.747186 0
vt 0.95318 0
f 15/124/24 14/125/24 59/126/24 58/127/24 

vt 0.738977 0.23622
vn 0.996555 0 -0.0829327
vt 0.532983 0.23622
v 1.69513 0 -13.7256
vt 0.532983 0
vt 0.738977 0
f 14/128/25 13/129/25 60/130/25 59/131/25 

vt 0.513893 0.23622
vn 0.977205 0 -0.2123
vt 0.307899 0.23622
v 2.80593 0 -8.61265
vt 0.307899 0
vt 0.513893 0
f 13/132/26 12/133/26 61/134/26 60/135/26 

vt 0.281778 0.23622
vn 0.941134 0 -0.338034
vt 0.0757837 0.23622
v 4.57461 0 -3.6884
vt 0.0757837 0
vt 0.281778 0
f 12/136/27 11/137/27 62/138/27 61/139/27 

vt 0.0466039 0.23622
vn 0.88896 0 -0.457985
vt -0.15939 0.23622
v 6.97091 0 0.962856
vt -0.15939 0
vt 0.0466039 0
f 11/140/28 10/141/28 63/142/28 62/143/28 

vt -0.187605 0.23622
vn 0.821576 0 -0.570099
vt -0.393599 0.23622
v 9.95381 0 5.26155
vt -0.393599 0
vt -0.187605 0
f 10/144/29 9/145/29 64/146/29 63/147/29 

vt -0.416842 0.23622
vn 0.740134 0 -0.672459
vt -0.622836 0.23622
v 13.4723 0 9.13411
vt -0.622836 0
vt -0.416842 0
f 9/148/30 8/149/30 65/150/30 64/151/30 

vt -0.637184 0.23622
vn 0.646029 0 -0.763313
vt -0.843178 0.23622
v 17.4661 0 12.5143
vt -0.843178 0
vt -0.637184 0
f 8/152/31 7/153/31 66/154/31 65/155/31 

vt -0.844861 0.23622
vn 0.540869 0 -0.841107
vt -1.05086 0.23622
v 21.867 0 15.3443
vt -1.05086 0
vt -0.844861 0
f 7/156/32 6/157/32 67/158/32 66/159/32 

vt -1.03632 0.23622
vn 0.426456 0 -0.904508
vt -1.24231 0.23622
v 26.5996 0 17.5756
vt -1.24231 0
vt -1.03632 0
f 6/160/33 5/161/33 68/162/33 67/163/33 

vt -1.20829 0.23622
vn 0.304745 0 -0.952434
vt -1.41428 0.23622
v 31.583 0 19.1701
vt -1.41428 0
vt -1.20829 0
f 5/164/34 4/165/34 69/166/34 68/167/34 

vt -1.35781 0.23622
vn 0.177821 0 -0.984063
vt -1.56381 0.23622
v 36.7319 0 20.1005
vt -1.56381 0
vt -1.35781 0
f 4/168/35 3/169/35 70/170/35 69/171/35 

vt -1.48235 0.23622
vn 0.0478533 0 -0.998854
vt -1.66063 0.23622
vt -1.66063 0
vt -1.48235 0
f 3/172/36 2/173/36 37/174/36 70/175/36 

vt -1.62421 -0.799889
vn 0 -1 -0
vt -1.62421 -1.35264
vt -1.34672 -1.33445
vt -1.07397 -1.2802
vt -0.810635 -1.19081
vt -0.561221 -1.06781
vt -0.329996 -0.913312
vt -0.120916 -0.729953
vt 0.0624432 -0.520873
vt 0.216943 -0.289648
vt 0.33994 -0.0402344
vt 0.42933 0.223099
vt 0.483583 0.495848
vt 0.501771 0.773345
vt 0.483583 1.05084
vt 0.42933 1.32359
vt 0.33994 1.58692
vt 0.216943 1.83634
vt -0.261753 1.55996
vt -0.246764 1.53665
vt -0.158917 1.35033
vt -0.0961412 1.15413
vt -0.0595112 0.951422
vt -0.0496537 0.745664
vt -0.0667373 0.540379
vt -0.11047 0.339081
vt -0.180103 0.145213
vt -0.274445 -0.0379077
vt -0.391882 -0.207147
vt -0.530405 -0.359611
vt -0.687643 -0.492689
vt -0.860906 -0.604105
vt -1.04723 -0.691952
vt -1.24343 -0.754728
vt -1.44614 -0.791358
f 37/176/37 36/177/37 38/178/37 39/179/37 40/180/37 41/181/37 42/182/37 43/183/37 44/184/37 45/185/37 46/186/37 47/187/37 48/188/37 49/189/37 50/190/37 51/191/37 52/192/37 53/193/37 54/194/37 55/195/37 56/196/37 57/197/37 58/198/37 59/199/37 60/200/37 61/201/37 62/202/37 63/203/37 64/204/37 65/205/37 66/206/37 67/207/37 68/208/37 69/209/37 70/210/37 

