# Alias OBJ Model File
# Exported from SketchUp, (c) 2000-2012 Trimble Navigation Limited
# File units = millimeters

mtllib TransferRing1b.mtl

g Mesh1 Model

usemtl FrontColor
v 47.3839 -2 -58.5955
vt 2.03969 -0.0787402
vn 0.965445 0 -0.260606
v 46.3474 -2 -66.3582
vt 2.34802 -0.0787402
vn 0.999998 0 -0.00185017
v 46.3474 4 -66.3582
vt 2.34802 0.15748
v 47.3839 4 -58.5955
vt 2.03969 0.15748
f 1/1/1 2/2/2 3/3/2 4/4/1 

v 46.9339 -2 -49.3592
vt -1.84779 1.94328
vn 0 -1 -0
vt -1.8247 2.61253
vt -1.86551 2.30691
f 5/5/3 2/6/3 1/7/3

v 44.9595 -2 -53.3444
vt -1.77006 2.10017
f 2/6/3 5/5/3 6/8/3

v 46.9339 4 -49.3592
vt -0.920956 0.15748
vn -0.896053 0 0.443947
v 44.9595 4 -53.3444
vt -1.09605 0.15748
vt -1.09605 -0.0787402
vt -0.920956 -0.0787402
f 7/9/4 8/10/4 6/11/4 5/12/4 

vt 1.84779 1.94328
vn 0 1 -0
vt 1.8247 2.61253
vt 1.77006 2.10017
f 7/13/5 3/14/5 8/15/5

vt 1.86551 2.30691
f 3/14/5 7/13/5 4/16/5

v 49.4116 4 -45.6659
vt 1.94534 1.79787
f 4/16/5 7/13/5 9/17/5

vt -0.409261 0.15748
vn -0.83044 0 0.557108
vt -0.584356 0.15748
vt -0.584356 -0.0787402
v 49.4116 -2 -45.6659
vt -0.409261 -0.0787402
f 9/18/6 7/19/6 5/20/6 10/21/6 

vt -1.94534 1.79787
f 5/5/3 1/7/3 10/22/3

v 50.3943 -2 -51.3656
vt -1.98403 2.02227
f 10/22/3 1/7/3 11/23/3

vt 1.10425 -0.0787402
vn 0.865099 0 -0.501601
vt 1.41258 -0.0787402
vt 1.41258 0.15748
v 50.3943 4 -51.3656
vt 1.10425 0.15748
f 11/24/7 1/25/1 4/26/1 12/27/7 

vt 1.98403 2.02227
f 4/16/5 9/17/5 12/28/5

v 52.3502 4 -42.3276
vt 2.06103 1.66644
f 12/28/5 9/17/5 13/29/5

vt 0.110935 0.15748
vn -0.750619 0 0.660736
vt -0.0641601 0.15748
vt -0.0641601 -0.0787402
v 52.3502 -2 -42.3276
vt 0.110935 -0.0787402
f 13/30/8 9/31/8 10/32/8 14/33/8 

vt -2.06103 1.66644
f 10/22/3 11/23/3 14/34/3

v 55.1734 -2 -45.1613
vt -2.17218 1.778
f 14/34/3 11/23/3 15/35/3

vt 0.0830536 -0.0787402
vn 0.705797 0 -0.708414
vt 0.391383 -0.0787402
vt 0.391383 0.15748
v 55.1734 4 -45.1613
vt 0.0830536 0.15748
f 15/36/9 11/37/7 12/38/7 16/39/9 

vt 2.17218 1.778
f 12/28/5 13/29/5 16/40/5

v 55.6994 4 -39.4014
vt 2.19289 1.55124
f 16/40/5 13/29/5 17/41/5

vt 0.630731 0.15748
vn -0.657954 0 0.753058
vt 0.455636 0.15748
vt 0.455636 -0.0787402
v 55.6994 -2 -39.4014
vt 0.630731 -0.0787402
f 17/42/10 13/43/10 14/44/10 18/45/10 

vt -2.19289 1.55124
f 14/34/3 15/35/3 18/46/3

v 61.3954 -2 -40.4052
vt -2.41714 1.59076
f 18/46/3 15/35/3 19/47/3

vt -0.954312 -0.0787402
vn 0.498397 0 -0.866949
vt -0.645982 -0.0787402
vt -0.645982 0.15748
v 61.3954 4 -40.4052
vt -0.954312 0.15748
f 19/48/11 15/49/9 16/50/9 20/51/11 

vt 2.41714 1.59076
f 16/40/5 17/41/5 20/52/5

v 59.4018 4 -36.9374
vt 2.33865 1.45423
f 20/52/5 17/41/5 21/53/5

vt 1.14123 0.15748
vn -0.554031 0 0.832496
vt 0.966137 0.15748
vt 0.966137 -0.0787402
v 59.4018 -2 -36.9374
vt 1.14123 -0.0787402
f 21/54/12 17/55/12 18/56/12 22/57/12 

vt -2.33865 1.45423
f 18/46/3 19/47/3 22/58/3

v 63.3942 -2 -34.9778
vt -2.49583 1.37708
f 22/58/3 19/47/3 23/59/3

v 68.6364 -2 -37.4216
vt -2.70222 1.47329
f 23/59/3 19/47/3 24/60/3

vt -1.93715 -0.0787402
vn 0.257031 0 -0.966403
vt -1.62882 -0.0787402
vt -1.62882 0.15748
v 68.6364 4 -37.4216
vt -1.93715 0.15748
f 24/61/13 19/62/11 20/63/11 25/64/13 

v 63.3942 4 -34.9778
vt 2.49583 1.37708
vt 2.70222 1.47329
f 20/52/5 26/65/5 25/66/5

f 20/52/5 21/53/5 26/65/5

vt 1.63371 0.15748
vn -0.440629 0 0.89769
vt 1.45861 0.15748
vt 1.45861 -0.0787402
vt 1.63371 -0.0787402
f 26/67/14 21/68/14 22/69/14 23/70/14 

v 67.6082 4 -33.556
vt 2.09972 0.15748
vn -0.319687 0 0.947523
vt 1.92463 0.15748
vt 1.92463 -0.0787402
v 67.6082 -2 -33.556
vt 2.09972 -0.0787402
f 27/71/15 26/72/15 23/73/15 28/74/15 

vt 2.66174 1.3211
f 25/66/5 26/65/5 27/75/5

v 71.9718 4 -32.6964
vt 2.83353 1.28726
f 25/66/5 27/75/5 29/76/5

vt 2.53131 0.15748
vn -0.193275 0 0.981145
vt 2.35622 0.15748
vt 2.35622 -0.0787402
v 71.9718 -2 -32.6964
vt 2.53131 -0.0787402
f 29/77/16 27/78/16 28/79/16 30/80/16 

vt -2.66174 1.3211
vt -2.83353 1.28726
f 28/81/3 24/60/3 30/82/3

f 23/59/3 24/60/3 28/81/3

v 76.4028 -2 -36.4137
vt -3.00798 1.43361
f 30/82/3 24/60/3 31/83/3

vt -2.79848 -0.0787402
vn -0.00185017 0 -0.999998
vt -2.49015 -0.0787402
vt -2.49015 0.15748
v 76.4028 4 -36.4137
vt -2.79848 0.15748
f 31/84/17 24/85/13 25/86/13 32/87/17 

vt 3.00798 1.43361
f 25/66/5 29/76/5 32/88/5

v 76.4102 4 -32.4137
vt 3.00828 1.27613
f 32/88/5 29/76/5 33/89/5

vt 2.92109 0.15748
vn -0.0635568 0 0.997978
vt 2.74599 0.15748
vt 2.74599 -0.0787402
v 76.4102 -2 -32.4137
vt 2.92109 -0.0787402
f 33/90/18 29/91/18 30/92/18 34/93/18 

vt -3.00828 1.27613
f 30/82/3 31/83/3 34/94/3

v 84.1655 -2 -37.4503
vt -3.3136 1.47442
f 34/94/3 31/83/3 35/95/3

vt -3.4796 -0.0787402
vn -0.260606 0 -0.965445
vt -3.17127 -0.0787402
vt -3.17127 0.15748
v 84.1655 4 -37.4503
vt -3.4796 0.15748
f 35/96/19 31/97/17 32/98/17 36/99/19 

vt 3.3136 1.47442
f 32/88/5 33/89/5 36/100/5

v 80.8476 4 -32.7128
vt 3.18297 1.28791
f 36/100/5 33/89/5 37/101/5

vt 3.26238 0.15748
vn 0.0672492 0 0.997736
vt 3.08728 0.15748
vt 3.08728 -0.0787402
v 80.8476 -2 -32.7128
vt 3.26238 -0.0787402
f 37/102/20 33/103/20 34/104/20 38/105/20 

vt -3.18297 1.28791
f 34/94/3 35/95/3 38/106/3

v 85.2079 -2 -33.5885
vt -3.35464 1.32238
f 38/106/3 35/95/3 39/107/3

v 91.3953 -2 -40.4607
vt -3.59824 1.59294
f 39/107/3 35/95/3 40/108/3

vt -3.9341 -0.0787402
vn -0.501601 0 -0.865099
vt -3.62577 -0.0787402
vt -3.62577 0.15748
v 91.3953 4 -40.4607
vt -3.9341 0.15748
f 40/109/21 35/110/19 36/111/19 41/112/21 

v 85.2079 4 -33.5885
vt 3.35464 1.32238
vt 3.59824 1.59294
f 36/100/5 42/113/5 41/114/5

f 36/100/5 37/101/5 42/113/5

vt 3.54935 0.15748
vn 0.196905 0 0.980423
vt 3.37425 0.15748
vt 3.37425 -0.0787402
vt 3.54935 -0.0787402
f 42/115/22 37/116/22 38/117/22 39/118/22 

v 89.4166 4 -35.0259
vt 3.77709 0.15748
vn 0.323191 0 0.946334
vt 3.60199 0.15748
vt 3.60199 -0.0787402
v 89.4166 -2 -35.0259
vt 3.77709 -0.0787402
f 43/119/23 42/120/23 39/121/23 44/122/23 

vt 3.52034 1.37897
f 41/114/5 42/113/5 43/123/5

v 93.4017 4 -37.0003
vt 3.67723 1.45671
f 41/114/5 43/123/5 45/124/5

vt 3.9417 0.15748
vn 0.443947 0 0.896053
vt 3.7666 0.15748
vt 3.7666 -0.0787402
v 93.4017 -2 -37.0003
vt 3.9417 -0.0787402
f 45/125/24 43/126/24 44/127/24 46/128/24 

vt -3.52034 1.37897
vt -3.67723 1.45671
f 44/129/3 40/108/3 46/130/3

f 39/107/3 40/108/3 44/129/3

v 97.5997 -2 -45.2398
vt -3.84251 1.78109
f 46/130/3 40/108/3 47/131/3

vt -4.13101 -0.0787402
vn -0.708414 0 -0.705797
vt -3.82268 -0.0787402
vt -3.82268 0.15748
v 97.5997 4 -45.2398
vt -4.13101 0.15748
f 47/132/25 40/133/21 41/134/21 48/135/25 

vt 3.84251 1.78109
f 41/114/5 45/124/5 48/136/5

v 97.0951 4 -39.478
vt 3.82264 1.55425
f 48/136/5 45/124/5 49/137/5

vt 4.04036 0.15748
vn 0.557108 0 0.83044
vt 3.86527 0.15748
vt 3.86527 -0.0787402
v 97.0951 -2 -39.478
vt 4.04036 -0.0787402
f 49/138/26 45/139/26 46/140/26 50/141/26 

vt -3.82264 1.55425
f 46/130/3 47/131/3 50/142/3

v 100.433 -2 -42.4166
vt -3.95407 1.66994
f 50/142/3 47/131/3 51/143/3

v 102.356 -2 -51.4618
vt -4.02975 2.02605
f 51/143/3 47/131/3 52/144/3

vt -4.0569 -0.0787402
vn -0.866949 0 -0.498397
vt -3.74857 -0.0787402
vt -3.74857 0.15748
v 102.356 4 -51.4618
vt -4.0569 0.15748
f 52/145/27 47/146/25 48/147/25 53/148/27 

v 100.433 4 -42.4166
vt 3.95407 1.66994
vt 4.02975 2.02605
f 48/136/5 54/149/5 53/150/5

f 48/136/5 49/137/5 54/149/5

vt 4.07139 0.15748
vn 0.660736 0 0.750619
vt 3.89629 0.15748
vt 3.89629 -0.0787402
vt 4.07139 -0.0787402
f 54/151/28 49/152/28 50/153/28 51/154/28 

v 103.36 4 -45.7657
vt 4.03425 0.15748
vn 0.753058 0 0.657954
vt 3.85916 0.15748
vt 3.85916 -0.0787402
v 103.36 -2 -45.7657
vt 4.03425 -0.0787402
f 55/155/29 54/156/29 51/157/29 56/158/29 

vt 4.06927 1.8018
f 53/150/5 54/149/5 55/159/5

v 105.339 4 -58.7027
vt 4.14722 2.31113
f 53/150/5 55/159/5 57/160/5

v 105.824 4 -49.4682
vt 4.16628 1.94757
f 57/160/5 55/159/5 58/161/5

vt 3.92959 0.15748
vn 0.832496 0 0.554031
vt 3.7545 0.15748
vt 3.7545 -0.0787402
v 105.824 -2 -49.4682
vt 3.92959 -0.0787402
f 58/162/30 55/163/30 56/164/30 59/165/30 

vt -4.06927 1.8018
v 105.339 -2 -58.7027
vt -4.14722 2.31113
vt -4.16628 1.94757
f 56/166/3 60/167/3 59/168/3

f 56/166/3 52/144/3 60/167/3

f 51/143/3 52/144/3 56/166/3

vt -3.71682 -0.0787402
vn -0.966403 0 -0.257031
vt -3.40849 -0.0787402
vt -3.40849 0.15748
vt -3.71682 0.15748
f 60/169/31 52/170/27 53/171/27 57/172/31 

v 106.347 -2 -66.4692
vt -3.13396 -0.0787402
vn -0.999998 0 0.00185017
vt -2.82563 -0.0787402
vt -2.82563 0.15748
v 106.347 4 -66.4692
vt -3.13396 0.15748
f 61/173/32 60/174/31 57/175/31 62/176/32 

vt -4.1869 2.6169
f 59/168/3 60/167/3 61/177/3

v 107.783 -2 -53.4606
vt -4.24343 2.10475
f 59/168/3 61/177/3 63/178/3

v 107.735 -2 -79.483
vt -4.24154 3.12925
f 63/178/3 61/177/3 64/179/3

v 105.761 -2 -83.4681
vt -4.16381 3.28615
f 61/177/3 65/180/3 64/179/3

v 105.311 -2 -74.2319
vt -4.14609 2.92251
f 66/181/3 65/180/3 61/177/3

v 103.283 -2 -87.1614
vt -4.06626 3.43155
f 66/181/3 67/182/3 65/180/3

v 102.3 -2 -81.4617
vt -4.02757 3.20715
f 68/183/3 67/182/3 66/181/3

v 100.344 -2 -90.4998
vt -3.95057 3.56298
f 68/183/3 69/184/3 67/182/3

v 97.5212 -2 -87.6661
vt -3.83942 3.45142
f 70/185/3 69/184/3 68/183/3

v 96.9952 -2 -93.4259
vt -3.81871 3.67819
f 70/185/3 71/186/3 69/184/3

v 93.2928 -2 -95.89
vt -3.67294 3.77519
f 70/185/3 72/187/3 71/186/3

v 91.2992 -2 -92.4222
vt -3.59446 3.63867
f 73/188/3 72/187/3 70/185/3

v 89.3004 -2 -97.8496
vt -3.51576 3.85235
f 73/188/3 74/189/3 72/187/3

v 85.0864 -2 -99.2714
vt -3.34986 3.90832
f 73/188/3 75/190/3 74/189/3

v 84.0582 -2 -95.4058
vt -3.30938 3.75613
f 76/191/3 75/190/3 73/188/3

v 80.7228 -2 -100.131
vt -3.17806 3.94216
f 76/191/3 77/192/3 75/190/3

v 76.2918 -2 -96.4136
vt -3.00361 3.79581
f 78/193/3 77/192/3 76/191/3

v 76.2844 -2 -100.414
vt -3.00332 3.95329
f 78/193/3 79/194/3 77/192/3

v 71.847 -2 -100.115
vt -2.82862 3.94152
f 78/193/3 80/195/3 79/194/3

v 68.5291 -2 -95.377
vt -2.698 3.755
f 81/196/3 80/195/3 78/193/3

v 67.4867 -2 -99.2388
vt -2.65696 3.90704
f 81/196/3 82/197/3 80/195/3

v 63.278 -2 -97.8015
vt -2.49126 3.85045
f 81/196/3 83/198/3 82/197/3

v 61.2993 -2 -92.3667
vt -2.41336 3.63648
f 84/199/3 83/198/3 81/196/3

v 59.2929 -2 -95.827
vt -2.33436 3.77272
f 84/199/3 85/200/3 83/198/3

v 55.5995 -2 -93.3494
vt -2.18896 3.67517
f 84/199/3 86/201/3 85/200/3

v 55.0949 -2 -87.5876
vt -2.16909 3.44833
f 87/202/3 86/201/3 84/199/3

v 52.2612 -2 -90.4108
vt -2.05753 3.55948
f 87/202/3 88/203/3 86/201/3

v 50.3388 -2 -81.3656
vt -1.98184 3.20337
f 89/204/3 88/203/3 87/202/3

v 49.335 -2 -87.0616
vt -1.94232 3.42762
f 89/204/3 90/205/3 88/203/3

v 47.3552 -2 -74.1246
vt -1.86438 2.91829
f 91/206/3 90/205/3 89/204/3

v 46.871 -2 -83.3592
vt -1.84532 3.28186
f 91/206/3 92/207/3 90/205/3

f 2/6/3 92/207/3 91/206/3

f 6/8/3 92/207/3 2/6/3

v 44.9114 -2 -79.3668
vt -1.76816 3.12468
f 6/8/3 93/208/3 92/207/3

v 43.5222 -2 -57.5531
vt -1.71347 2.26587
f 94/209/3 93/208/3 6/8/3

v 43.4896 -2 -75.1528
vt -1.71219 2.95877
f 94/209/3 95/210/3 93/208/3

v 42.6464 -2 -61.9134
vt -1.67899 2.43754
f 96/211/3 95/210/3 94/209/3

v 42.63 -2 -70.7892
vt -1.67835 2.78698
f 96/211/3 97/212/3 95/210/3

v 42.3474 -2 -66.3508
vt -1.66722 2.61224
f 97/212/3 96/211/3 98/213/3

v 42.6464 4 -61.9134
vt -2.31911 0.15748
vn -0.997736 0 0.0672492
v 42.3474 4 -66.3508
vt -2.4942 0.15748
vt -2.4942 -0.0787402
vt -2.31911 -0.0787402
f 99/214/33 100/215/33 98/216/33 96/217/33 

vt 1.67899 2.43754
v 42.63 4 -70.7892
vt 1.67835 2.78698
vt 1.66722 2.61224
f 99/218/5 101/219/5 100/220/5

v 43.4896 4 -75.1528
vt 1.71219 2.95877
f 101/219/5 99/218/5 102/221/5

v 43.5222 4 -57.5531
vt 1.71347 2.26587
f 102/221/5 99/218/5 103/222/5

vt -1.88412 0.15748
vn -0.980423 0 0.196905
vt -2.05921 0.15748
vt -2.05921 -0.0787402
vt -1.88412 -0.0787402
f 103/223/34 99/224/34 96/225/34 94/226/34 

vt -1.4154 0.15748
vn -0.946334 0 0.323191
vt -1.59049 0.15748
vt -1.59049 -0.0787402
vt -1.4154 -0.0787402
f 8/227/35 103/228/35 94/229/35 6/230/35 

v 44.9114 4 -79.3668
vt 1.76816 3.12468
f 104/231/5 103/222/5 8/15/5

f 102/221/5 103/222/5 104/231/5

vt -3.35087 0.15748
vn -0.947523 0 -0.319687
vt -3.52596 0.15748
vt -3.52596 -0.0787402
vt -3.35087 -0.0787402
f 102/232/36 104/233/36 93/234/36 95/235/36 

vt -3.58409 0.15748
vn -0.89769 0 -0.440629
v 46.871 4 -83.3592
vt -3.75919 0.15748
vt -3.75919 -0.0787402
vt -3.58409 -0.0787402
f 104/236/37 105/237/37 92/238/37 93/239/37 

vt 1.84532 3.28186
f 104/231/5 8/15/5 105/240/5

f 105/240/5 8/15/5 3/14/5

v 47.3552 4 -74.1246
vt 1.86438 2.91829
f 105/240/5 3/14/5 106/241/5

vt 2.82563 -0.0787402
vt 3.13396 -0.0787402
vn 0.966403 0 0.257031
vt 3.13396 0.15748
vt 2.82563 0.15748
f 2/242/2 91/243/38 106/244/38 3/245/2 

vt 3.40849 -0.0787402
vt 3.71682 -0.0787402
vn 0.866949 0 0.498397
v 50.3388 4 -81.3656
vt 3.71682 0.15748
vt 3.40849 0.15748
f 91/246/38 89/247/39 107/248/39 106/249/38 

vt 3.74857 -0.0787402
vt 4.0569 -0.0787402
vn 0.708414 0 0.705797
v 55.0949 4 -87.5876
vt 4.0569 0.15748
vt 3.74857 0.15748
f 89/250/39 87/251/40 108/252/40 107/253/39 

vt 3.82268 -0.0787402
vt 4.13101 -0.0787402
vn 0.501601 0 0.865099
v 61.2993 4 -92.3667
vt 4.13101 0.15748
vt 3.82268 0.15748
f 87/254/40 84/255/41 109/256/41 108/257/40 

vt 3.62577 -0.0787402
vt 3.9341 -0.0787402
vn 0.260606 0 0.965445
v 68.5291 4 -95.377
vt 3.9341 0.15748
vt 3.62577 0.15748
f 84/258/41 81/259/42 110/260/42 109/261/41 

vt 3.17127 -0.0787402
vt 3.4796 -0.0787402
vn 0.00185017 0 0.999998
v 76.2918 4 -96.4136
vt 3.4796 0.15748
vt 3.17127 0.15748
f 81/262/42 78/263/43 111/264/43 110/265/42 

vt 2.49015 -0.0787402
vt 2.79848 -0.0787402
vn -0.257031 0 0.966403
v 84.0582 4 -95.4058
vt 2.79848 0.15748
vt 2.49015 0.15748
f 78/266/43 76/267/44 112/268/44 111/269/43 

vt 1.62882 -0.0787402
vt 1.93715 -0.0787402
vn -0.498397 0 0.866949
v 91.2992 4 -92.4222
vt 1.93715 0.15748
vt 1.62882 0.15748
f 76/270/44 73/271/45 113/272/45 112/273/44 

vt 0.645982 -0.0787402
vt 0.954312 -0.0787402
vn -0.705797 0 0.708414
v 97.5212 4 -87.6661
vt 0.954312 0.15748
vt 0.645982 0.15748
f 73/274/45 70/275/46 114/276/46 113/277/45 

vt -0.391383 -0.0787402
vt -0.0830536 -0.0787402
vn -0.865099 0 0.501601
v 102.3 4 -81.4617
vt -0.0830536 0.15748
vt -0.391383 0.15748
f 70/278/46 68/279/47 115/280/47 114/281/46 

vt -1.41258 -0.0787402
vt -1.10425 -0.0787402
vn -0.965445 0 0.260606
v 105.311 4 -74.2319
vt -1.10425 0.15748
vt -1.41258 0.15748
f 68/282/47 66/283/48 116/284/48 115/285/47 

vt -2.34802 -0.0787402
vt -2.03969 -0.0787402
vt -2.03969 0.15748
vt -2.34802 0.15748
f 66/286/48 61/287/32 62/288/32 116/289/48 

v 105.761 4 -83.4681
vt 4.16381 3.28615
vt 4.14609 2.92251
vt 4.1869 2.6169
f 117/290/5 116/291/5 62/292/5

v 103.283 4 -87.1614
vt 4.06626 3.43155
f 118/293/5 116/291/5 117/290/5

vt 4.02757 3.20715
f 118/293/5 115/294/5 116/291/5

v 100.344 4 -90.4998
vt 3.95057 3.56298
f 119/295/5 115/294/5 118/293/5

vt 3.83942 3.45142
f 119/295/5 114/296/5 115/294/5

v 96.9952 4 -93.4259
vt 3.81871 3.67819
f 120/297/5 114/296/5 119/295/5

v 93.2928 4 -95.89
vt 3.67294 3.77519
f 121/298/5 114/296/5 120/297/5

vt 3.59446 3.63867
f 121/298/5 113/299/5 114/296/5

v 89.3004 4 -97.8496
vt 3.51576 3.85235
f 122/300/5 113/299/5 121/298/5

v 85.0864 4 -99.2714
vt 3.34986 3.90832
f 123/301/5 113/299/5 122/300/5

vt 3.30938 3.75613
f 123/301/5 112/302/5 113/299/5

v 80.7228 4 -100.131
vt 3.17806 3.94216
f 124/303/5 112/302/5 123/301/5

vt 3.00361 3.79581
f 124/303/5 111/304/5 112/302/5

v 76.2844 4 -100.414
vt 3.00332 3.95329
f 125/305/5 111/304/5 124/303/5

v 71.847 4 -100.115
vt 2.82862 3.94152
f 126/306/5 111/304/5 125/305/5

vt 2.698 3.755
f 126/306/5 110/307/5 111/304/5

v 67.4867 4 -99.2388
vt 2.65696 3.90704
f 127/308/5 110/307/5 126/306/5

v 63.278 4 -97.8015
vt 2.49126 3.85045
f 128/309/5 110/307/5 127/308/5

vt 2.41336 3.63648
f 128/309/5 109/310/5 110/307/5

v 59.2929 4 -95.827
vt 2.33436 3.77272
f 129/311/5 109/310/5 128/309/5

v 55.5995 4 -93.3494
vt 2.18896 3.67517
f 130/312/5 109/310/5 129/311/5

vt 2.16909 3.44833
f 130/312/5 108/313/5 109/310/5

v 52.2612 4 -90.4108
vt 2.05753 3.55948
f 131/314/5 108/313/5 130/312/5

vt 1.98184 3.20337
f 131/314/5 107/315/5 108/313/5

v 49.335 4 -87.0616
vt 1.94232 3.42762
f 132/316/5 107/315/5 131/314/5

f 132/316/5 106/241/5 107/315/5

f 105/240/5 106/241/5 132/316/5

vt -3.7545 0.15748
vn -0.832496 0 -0.554031
vt -3.92959 0.15748
vt -3.92959 -0.0787402
vt -3.7545 -0.0787402
f 105/317/49 132/318/49 90/319/49 92/320/49 

vt -3.85916 0.15748
vn -0.753058 0 -0.657954
vt -4.03425 0.15748
vt -4.03425 -0.0787402
vt -3.85916 -0.0787402
f 132/321/50 131/322/50 88/323/50 90/324/50 

vt -3.89629 0.15748
vn -0.660736 0 -0.750619
vt -4.07139 0.15748
vt -4.07139 -0.0787402
vt -3.89629 -0.0787402
f 131/325/51 130/326/51 86/327/51 88/328/51 

vt -3.86527 0.15748
vn -0.557108 0 -0.83044
vt -4.04036 0.15748
vt -4.04036 -0.0787402
vt -3.86527 -0.0787402
f 130/329/52 129/330/52 85/331/52 86/332/52 

vt -3.7666 0.15748
vn -0.443947 0 -0.896053
vt -3.9417 0.15748
vt -3.9417 -0.0787402
vt -3.7666 -0.0787402
f 129/333/53 128/334/53 83/335/53 85/336/53 

vt -3.60199 0.15748
vn -0.323191 0 -0.946334
vt -3.77709 0.15748
vt -3.77709 -0.0787402
vt -3.60199 -0.0787402
f 128/337/54 127/338/54 82/339/54 83/340/54 

vt -3.37425 0.15748
vn -0.196905 0 -0.980423
vt -3.54935 0.15748
vt -3.54935 -0.0787402
vt -3.37425 -0.0787402
f 127/341/55 126/342/55 80/343/55 82/344/55 

vt -3.08728 0.15748
vn -0.0672492 0 -0.997736
vt -3.26238 0.15748
vt -3.26238 -0.0787402
vt -3.08728 -0.0787402
f 126/345/56 125/346/56 79/347/56 80/348/56 

vt -2.74599 0.15748
vn 0.0635568 0 -0.997978
vt -2.92109 0.15748
vt -2.92109 -0.0787402
vt -2.74599 -0.0787402
f 125/349/57 124/350/57 77/351/57 79/352/57 

vt -2.35622 0.15748
vn 0.193275 0 -0.981145
vt -2.53131 0.15748
vt -2.53131 -0.0787402
vt -2.35622 -0.0787402
f 124/353/58 123/354/58 75/355/58 77/356/58 

vt -1.92463 0.15748
vn 0.319687 0 -0.947523
vt -2.09972 0.15748
vt -2.09972 -0.0787402
vt -1.92463 -0.0787402
f 123/357/59 122/358/59 74/359/59 75/360/59 

vt -1.45861 0.15748
vn 0.440629 0 -0.89769
vt -1.63371 0.15748
vt -1.63371 -0.0787402
vt -1.45861 -0.0787402
f 122/361/60 121/362/60 72/363/60 74/364/60 

vt -0.966137 0.15748
vn 0.554031 0 -0.832496
vt -1.14123 0.15748
vt -1.14123 -0.0787402
vt -0.966137 -0.0787402
f 121/365/61 120/366/61 71/367/61 72/368/61 

vt -0.455636 0.15748
vn 0.657954 0 -0.753058
vt -0.630731 0.15748
vt -0.630731 -0.0787402
vt -0.455636 -0.0787402
f 120/369/62 119/370/62 69/371/62 71/372/62 

vt 0.0641601 0.15748
vn 0.750619 0 -0.660736
vt -0.110935 0.15748
vt -0.110935 -0.0787402
vt 0.0641601 -0.0787402
f 119/373/63 118/374/63 67/375/63 69/376/63 

vt 0.584356 0.15748
vn 0.83044 0 -0.557108
vt 0.409261 0.15748
vt 0.409261 -0.0787402
vt 0.584356 -0.0787402
f 118/377/64 117/378/64 65/379/64 67/380/64 

vt 1.09605 0.15748
vn 0.896053 0 -0.443947
v 107.735 4 -79.483
vt 0.920956 0.15748
vt 0.920956 -0.0787402
vt 1.09605 -0.0787402
f 117/381/65 133/382/65 64/383/65 65/384/65 

vt 4.24154 3.12925
f 117/290/5 62/292/5 133/385/5

v 107.783 4 -53.4606
vt 4.24343 2.10475
f 62/292/5 134/386/5 133/385/5

f 62/292/5 58/161/5 134/386/5

f 57/160/5 58/161/5 62/292/5

vt 3.75919 0.15748
vn 0.89769 0 0.440629
vt 3.58409 0.15748
vt 3.58409 -0.0787402
vt 3.75919 -0.0787402
f 134/387/66 58/388/66 59/389/66 63/390/66 

v 109.205 4 -57.6746
vt 3.52596 0.15748
vn 0.947523 0 0.319687
vt 3.35087 0.15748
vt 3.35087 -0.0787402
v 109.205 -2 -57.6746
vt 3.52596 -0.0787402
f 135/391/67 134/392/67 63/393/67 136/394/67 

v 109.172 4 -75.2743
vt 4.29813 2.96355
vt 4.29941 2.27065
f 137/395/5 134/386/5 135/396/5

f 133/385/5 134/386/5 137/395/5

vt 1.59049 0.15748
vn 0.946334 0 -0.323191
vt 1.4154 0.15748
v 109.172 -2 -75.2743
vt 1.4154 -0.0787402
vt 1.59049 -0.0787402
f 133/397/68 137/398/68 138/399/68 64/400/68 

vt 2.05921 0.15748
vn 0.980423 0 -0.196905
v 110.048 4 -70.9139
vt 1.88412 0.15748
v 110.048 -2 -70.9139
vt 1.88412 -0.0787402
vt 2.05921 -0.0787402
f 137/401/69 139/402/69 140/403/69 138/404/69 

vt 4.3326 2.79189
f 137/395/5 135/396/5 139/405/5

v 110.065 4 -62.0382
vt 4.33325 2.44245
f 139/405/5 135/396/5 141/406/5

vt 3.2339 0.15748
vn 0.981145 0 0.193275
vt 3.05881 0.15748
vt 3.05881 -0.0787402
v 110.065 -2 -62.0382
vt 3.2339 -0.0787402
f 141/407/70 135/408/70 136/409/70 142/410/70 

vt -4.29941 2.27065
vt -4.3326 2.79189
vt -4.33325 2.44245
f 136/411/3 140/412/3 142/413/3

vt -4.29813 2.96355
f 136/411/3 138/414/3 140/412/3

f 63/178/3 138/414/3 136/411/3

f 63/178/3 64/179/3 138/414/3

v 110.347 -2 -66.4766
vt -4.34438 2.61719
f 142/413/3 140/412/3 143/415/3

vt 2.4942 0.15748
vn 0.997736 0 -0.0672492
v 110.347 4 -66.4766
vt 2.31911 0.15748
vt 2.31911 -0.0787402
vt 2.4942 -0.0787402
f 139/416/71 144/417/71 143/418/71 140/419/71 

vt 4.34438 2.61719
f 139/405/5 141/406/5 144/420/5

vt 2.88801 0.15748
vn 0.997978 0 0.0635568
vt 2.71292 0.15748
vt 2.71292 -0.0787402
vt 2.88801 -0.0787402
f 144/421/72 141/422/72 142/423/72 143/424/72 

vt -3.05881 0.15748
vn -0.981145 0 -0.193275
vt -3.2339 0.15748
vt -3.2339 -0.0787402
vt -3.05881 -0.0787402
f 101/425/73 102/426/73 95/427/73 97/428/73 

vt -2.71292 0.15748
vn -0.997978 0 -0.0635568
vt -2.88801 0.15748
vt -2.88801 -0.0787402
vt -2.71292 -0.0787402
f 100/429/74 101/430/74 97/431/74 98/432/74 

